<svg width="940" height="1031" viewBox="0 0 940 1031" fill="none" xmlns="http://www.w3.org/2000/svg">
<g clip-path="url(#clip0_4_127)">
<path d="M256.38 59.6681C259.552 58.3725 263.186 58.9913 265.751 61.2638C268.316 63.5364 269.368 67.0686 268.464 70.3742C254.836 120.2 259.995 142.808 269.728 154.103C274.695 159.866 281.653 163.711 290.556 166.504C299.569 169.332 309.784 170.857 320.927 172.498C326.32 173.293 331.919 174.115 337.46 175.138C344.96 166.619 354.691 158.016 366.85 149.528C375.045 117.597 392.979 98.0832 416.607 92.3771C435.538 87.8057 456.252 92.5895 475.632 104.146C477.026 98.8896 479.714 94.1649 483.564 90.2033C491.488 82.0505 503.269 78.2018 515.598 78.2707C536.865 78.3896 561.587 89.9651 579.621 115.471C580.224 114.818 580.856 114.194 581.519 113.603C586.615 109.057 592.789 106.995 599.029 106.683C611.054 106.082 623.882 111.86 634.264 119.69C644.813 127.644 654.305 138.799 659.173 151.073C662.43 159.289 663.705 168.383 661.46 177.189C685.7 178.725 702.916 175.936 714.954 170.813C728.64 164.988 736.078 155.981 739.891 145.538C743.833 134.745 744.09 121.834 742.035 108.46C739.993 95.1676 735.77 82.0815 731.439 71.3752C730.091 68.0423 730.856 64.2269 733.385 61.6711C735.913 59.1154 739.719 58.3095 743.066 59.6212C774.325 71.8727 796.207 89.1995 809.44 109.412C822.709 129.679 826.907 152.291 823.668 174.248C818.333 210.407 793.025 244.278 755.832 264.325C761.777 266.061 768.323 268.09 774.943 270.359C786.211 274.22 798.029 278.888 807.526 284.121C812.267 286.734 816.726 289.647 820.306 292.878C823.78 296.013 827.185 300.124 828.502 305.27C828.957 307.049 828.857 308.926 828.215 310.647C817.972 338.09 804.007 356.102 788.221 367.225C772.429 378.352 755.527 382.084 740.284 382.188C730.714 382.253 721.747 380.89 713.984 379.02C734.771 415.257 743.449 460.446 743.487 491.802C743.499 501.656 742.666 510.599 740.896 517.784C740.011 521.376 738.829 524.795 737.227 527.751C735.659 530.646 733.378 533.667 730.023 535.656C726.367 537.824 722.177 538.312 718.094 537.14C715.897 536.509 713.894 535.447 712.075 534.148C711.351 539.734 710.224 545.363 708.827 550.875C704.171 569.243 696.097 588.028 687.384 603.073C683.022 610.604 678.398 617.375 673.823 622.769C669.43 627.947 664.402 632.677 659.073 635.035C656.299 636.263 652.788 637.136 648.997 636.4C646.086 635.834 643.643 634.442 641.7 632.571C638.846 637.276 635.659 642.102 632.282 646.881C623.4 659.453 612.788 672.313 602.489 682.709C597.34 687.907 592.166 692.593 587.236 696.345C582.417 700.013 577.348 703.165 572.435 704.793C567.652 706.379 560.811 707.15 555.232 702.369C554.984 702.157 554.747 701.936 554.517 701.713C544.692 712.054 536.245 719.941 526.185 725.69C512.69 733.401 497.017 736.92 472.716 739.451C469.877 739.747 467.065 738.679 465.139 736.572C463.214 734.466 462.402 731.57 462.951 728.769C462.981 728.617 463.346 726.643 457.652 721.537C452.334 716.768 444.301 711.536 434.016 704.875C410.293 689.511 376.942 668.12 356.407 633.246C355.664 633.896 354.839 634.489 353.923 634.999C350.773 636.752 347.392 637.071 344.32 636.516C338.786 635.515 334.033 631.684 330.384 627.893C326.459 623.816 322.542 618.437 318.812 612.225C306.779 592.186 295.003 560.611 291.386 526.909C290.159 527.889 288.93 528.747 287.694 529.475C284.33 531.456 280.433 532.772 276.234 532.473C271.9 532.164 268.294 530.208 265.552 527.523C260.539 522.612 258.032 514.95 256.692 507.48C255.279 499.6 254.867 490.148 255.335 479.962C256.272 459.572 260.79 435.146 269.026 412.404C273.211 400.85 278.443 389.491 284.814 379.236C276.758 380.991 267.593 382.25 257.957 382.188C242.112 382.085 224.666 378.405 208.946 367.194C193.175 355.948 179.995 337.729 171.666 310.098C171.651 310.049 171.637 310 171.623 309.951C169.819 303.577 172.186 297.983 175.335 293.988C178.368 290.141 182.697 286.941 187.167 284.275C196.202 278.884 208.415 274.168 220.208 270.318C227.948 267.79 235.746 265.561 242.736 263.704C207.549 243.481 184.061 209.695 179.253 173.938C176.31 152.056 180.406 129.523 193.077 109.323C205.735 89.145 226.609 71.8265 256.38 59.6681Z" fill="#FBFBFB"/>
<path d="M241.38 42.6681C244.552 41.3725 248.186 41.9913 250.751 44.2638C253.316 46.5364 254.368 50.0686 253.464 53.3742C239.836 103.2 244.995 125.808 254.728 137.103C259.695 142.866 266.653 146.711 275.556 149.504C284.569 152.332 294.784 153.857 305.927 155.498C311.32 156.293 316.919 157.115 322.46 158.138C329.96 149.619 339.691 141.016 351.85 132.528C360.045 100.597 377.979 81.0832 401.607 75.3771C420.538 70.8057 441.252 75.5895 460.632 87.1457C462.026 81.8896 464.714 77.1649 468.564 73.2033C476.488 65.0505 488.269 61.2018 500.598 61.2707C521.865 61.3896 546.587 72.9651 564.621 98.4709C565.224 97.8179 565.856 97.1943 566.519 96.6027C571.615 92.0566 577.789 89.9945 584.029 89.6828C596.054 89.0821 608.882 94.86 619.264 102.69C629.813 110.644 639.305 121.799 644.173 134.073C647.43 142.289 648.705 151.383 646.46 160.189C670.7 161.725 687.916 158.936 699.954 153.813C713.64 147.988 721.078 138.981 724.891 128.538C728.833 117.745 729.09 104.834 727.035 91.4601C724.993 78.1676 720.77 65.0815 716.439 54.3752C715.091 51.0423 715.856 47.2269 718.385 44.6711C720.913 42.1154 724.719 41.3095 728.066 42.6212C759.325 54.8727 781.207 72.1995 794.44 92.4123C807.709 112.679 811.907 135.291 808.668 157.248C803.333 193.407 778.025 227.278 740.832 247.325C746.777 249.061 753.323 251.09 759.943 253.359C771.211 257.22 783.029 261.888 792.526 267.121C797.267 269.734 801.726 272.647 805.306 275.878C808.78 279.013 812.185 283.124 813.502 288.27C813.957 290.049 813.857 291.926 813.215 293.647C802.972 321.09 789.007 339.102 773.221 350.225C757.429 361.352 740.527 365.084 725.284 365.188C715.714 365.253 706.747 363.89 698.984 362.02C719.771 398.257 728.449 443.446 728.487 474.802C728.499 484.656 727.666 493.599 725.896 500.784C725.011 504.376 723.829 507.795 722.227 510.751C720.659 513.646 718.378 516.667 715.023 518.656C711.367 520.824 707.177 521.312 703.094 520.14C700.897 519.509 698.894 518.447 697.075 517.148C696.351 522.734 695.224 528.363 693.827 533.875C689.171 552.243 681.097 571.028 672.384 586.073C668.022 593.604 663.398 600.375 658.823 605.769C654.43 610.947 649.402 615.677 644.073 618.035C641.299 619.263 637.788 620.136 633.997 619.4C631.086 618.834 628.643 617.442 626.7 615.571C623.846 620.276 620.659 625.102 617.282 629.881C608.4 642.453 597.788 655.313 587.489 665.709C582.34 670.907 577.166 675.593 572.236 679.345C567.417 683.013 562.348 686.165 557.435 687.793C552.652 689.379 545.811 690.15 540.232 685.369C539.984 685.157 539.747 684.936 539.517 684.713C529.692 695.054 521.245 702.941 511.185 708.69C497.69 716.401 482.017 719.92 457.716 722.451C454.877 722.747 452.065 721.679 450.139 719.572C448.214 717.466 447.402 714.57 447.951 711.769C447.981 711.617 448.346 709.643 442.652 704.537C437.334 699.768 429.301 694.536 419.016 687.875C395.293 672.511 361.942 651.12 341.407 616.246C340.664 616.896 339.839 617.489 338.923 617.999C335.773 619.752 332.392 620.071 329.32 619.516C323.786 618.515 319.033 614.684 315.384 610.893C311.459 606.816 307.542 601.437 303.812 595.225C291.779 575.186 280.003 543.611 276.386 509.909C275.159 510.889 273.93 511.747 272.694 512.475C269.33 514.456 265.433 515.772 261.234 515.473C256.9 515.164 253.294 513.208 250.552 510.523C245.539 505.612 243.032 497.95 241.692 490.48C240.279 482.6 239.867 473.148 240.335 462.962C241.272 442.572 245.79 418.146 254.026 395.404C258.211 383.85 263.443 372.491 269.814 362.236C261.758 363.991 252.593 365.25 242.957 365.188C227.112 365.085 209.666 361.405 193.946 350.194C178.175 338.948 164.995 320.729 156.666 293.098C156.651 293.049 156.637 293 156.623 292.951C154.819 286.577 157.186 280.983 160.335 276.988C163.368 273.141 167.697 269.941 172.167 267.275C181.202 261.884 193.415 257.168 205.208 253.318C212.948 250.79 220.746 248.561 227.736 246.704C192.549 226.481 169.061 192.695 164.253 156.938C161.31 135.056 165.406 112.523 178.077 92.3234C190.735 72.145 211.609 54.8265 241.38 42.6681Z" fill="#020122"/>
<path d="M353.017 441.5C331.346 499.755 368.069 550 391.285 550C397.679 550 407.083 548.107 418.088 545.892C433.615 542.767 452.331 539 470.285 539C488.552 539 506.118 542.582 521.203 545.658C532.555 547.972 542.501 550 550.285 550C575.894 550 606.186 497.441 585.791 441.5C553.682 412.963 533.61 418.366 511.161 424.41C498.998 427.685 486.137 431.147 470.285 429.5C454.191 431.147 440.95 427.87 428.426 424.77C405.313 419.05 384.647 413.935 353.017 441.5Z" fill="#FC9E4F"/>
<path d="M391.285 550C378.785 617 561.285 613.5 550.285 550C542.501 550 532.555 547.972 521.203 545.658C506.118 542.582 488.552 539 470.285 539C452.331 539 433.615 542.767 418.088 545.892C407.083 548.107 397.679 550 391.285 550Z" fill="#FC9E4F"/>
<path d="M303.42 204.5C293.196 192.462 293.492 172.888 310.933 151C304.019 149.523 296.811 148.461 289.618 147.402C245.678 140.931 202.287 134.541 229.785 34.0002C116.363 80.3214 148.746 200.857 240.285 232.37C254.472 237.254 270.079 240 286.785 240L303.42 204.5Z" fill="#FC9E4F"/>
<path d="M709.785 34.0002C727.785 78.5002 745.285 165.5 617.785 151C649.107 170.68 657.923 200.655 641.285 211.708C647.595 222.262 650.297 228.577 654.785 240C670.331 239.507 684.956 236.813 698.394 232.37C793.873 200.803 829.443 80.8993 709.785 34.0002Z" fill="#FC9E4F"/>
<path fill-rule="evenodd" clip-rule="evenodd" d="M454.785 87.5002C410.785 52.0002 359.285 57.5002 344.785 121C329.752 131.152 318.66 141.303 310.933 151C293.492 172.888 293.196 192.462 303.42 204.5C317.893 221.541 353.445 223.479 391.285 195.5C353.785 284 460.285 232.5 477.785 215C506.285 270 550.285 186.5 550.285 186.5C598.088 217.249 627.91 220.592 641.285 211.708C657.923 200.655 649.107 170.68 617.785 151C646.285 114 561.285 50.0002 550.285 100C516.785 34.0002 442.992 45.554 454.785 87.5002ZM150.285 273.5C144.2 252 240.285 232.37 240.285 232.37C254.472 237.254 270.079 240 286.785 240C283.488 256.793 281.593 272.632 280.927 287.5C280.307 301.349 280.753 314.354 282.125 326.5C282.125 326.5 181.785 378 150.285 273.5ZM353.017 441.5C318.111 425.313 288.882 386.34 282.125 326.5C221.285 378 219.785 547 269.285 469.5C267.94 549.911 324.785 631.5 324.785 575C341.337 619.558 380.417 644.867 408.911 663.321C429.017 676.342 443.854 685.951 441.785 696.5C489.785 691.5 498.285 683 527.785 651C528.285 694 600.785 610.5 613.785 574.5C613.785 641 690.285 517 670.785 468C712.285 558 722.785 398 659.916 326.5C659.916 326.5 750.785 378 789.785 273.5C784.285 252 698.394 232.37 698.394 232.37C684.956 236.813 670.331 239.507 654.785 240C658.075 256.451 660.163 272.317 660.956 287.5C661.664 301.068 661.339 314.092 659.916 326.5C654.216 376.175 630.905 415.999 585.791 441.5C606.186 497.441 575.894 550 550.285 550C561.285 613.5 378.785 617 391.285 550C368.069 550 331.346 499.755 353.017 441.5Z" fill="#854D27"/>
<path d="M477.785 215C460.285 232.5 353.785 284 391.285 195.5C353.445 223.479 317.893 221.541 303.42 204.5L286.785 240C283.488 256.793 281.593 272.632 280.927 287.5C280.307 301.349 280.753 314.354 282.125 326.5C288.882 386.34 318.111 425.313 353.017 441.5C384.647 413.935 405.313 419.05 428.426 424.77C440.95 427.87 454.191 431.147 470.285 429.5C486.137 431.147 498.998 427.685 511.161 424.41C533.61 418.366 553.682 412.963 585.791 441.5C630.905 415.999 654.216 376.175 659.916 326.5C661.339 314.092 661.664 301.068 660.956 287.5C660.163 272.317 658.075 256.451 654.785 240C650.297 228.577 647.595 222.262 641.285 211.708C627.91 220.592 598.088 217.249 550.285 186.5C550.285 186.5 506.285 270 477.785 215Z" fill="#854D27"/>
<path d="M703.387 27.6711C705.915 25.1153 709.721 24.3095 713.068 25.6213C744.327 37.8728 766.209 55.1995 779.442 75.4123C792.711 95.6788 796.91 118.291 793.67 140.248C788.335 176.407 763.028 210.278 725.834 230.325C731.779 232.061 738.325 234.09 744.945 236.359C756.213 240.22 768.032 244.888 777.528 250.121C782.27 252.734 786.728 255.647 790.309 258.878C793.782 262.013 797.187 266.123 798.504 271.27C798.959 273.049 798.859 274.926 798.217 276.647C787.975 304.09 774.009 322.102 758.224 333.225C742.431 344.352 725.529 348.084 710.286 348.188C700.716 348.253 691.749 346.89 683.986 345.02C704.773 381.257 713.451 426.446 713.489 457.802C713.501 467.656 712.668 476.599 710.898 483.784C710.014 487.376 708.831 490.795 707.229 493.751C705.661 496.646 703.38 499.667 700.025 501.656C696.37 503.824 692.179 504.312 688.096 503.14C685.899 502.509 683.897 501.447 682.077 500.148C681.354 505.734 680.226 511.363 678.829 516.875C674.173 535.243 666.099 554.028 657.386 569.073C653.024 576.604 648.4 583.375 643.825 588.769C639.432 593.947 634.405 598.677 629.075 601.035C626.301 602.263 622.791 603.136 618.999 602.4C616.088 601.834 613.645 600.442 611.702 598.571C608.848 603.276 605.661 608.102 602.284 612.881C593.402 625.453 582.79 638.313 572.491 648.709C567.342 653.907 562.168 658.593 557.238 662.345C552.419 666.013 547.35 669.165 542.437 670.793C537.654 672.379 530.813 673.15 525.234 668.369C524.987 668.157 524.75 667.937 524.52 667.713C514.694 678.054 506.247 685.941 496.187 691.69C482.692 699.401 467.019 702.92 442.718 705.451C439.879 705.747 437.067 704.679 435.142 702.572C433.216 700.466 432.404 697.57 432.953 694.769C432.983 694.619 433.35 692.645 427.654 687.537C422.336 682.768 414.303 677.536 404.019 670.875C380.295 655.511 346.944 634.12 326.409 599.246C325.666 599.896 324.842 600.489 323.925 600.999C320.775 602.752 317.394 603.071 314.322 602.516C308.789 601.515 304.035 597.684 300.386 593.893C296.462 589.817 292.545 584.437 288.814 578.225C276.781 558.186 265.005 526.611 261.389 492.909C260.161 493.889 258.932 494.747 257.696 495.475C254.332 497.456 250.435 498.772 246.236 498.473C241.902 498.164 238.296 496.208 235.555 493.523C230.542 488.612 228.034 480.95 226.694 473.48C225.281 465.6 224.869 456.148 225.337 445.962C226.274 425.572 230.792 401.146 239.028 378.404C243.213 366.85 248.446 355.491 254.816 345.236C246.76 346.991 237.595 348.25 227.959 348.188C212.115 348.085 194.668 344.405 178.948 333.194C163.177 321.948 149.997 303.729 141.668 276.098C141.653 276.049 141.639 276 141.625 275.951C139.821 269.577 142.188 263.983 145.337 259.988C148.37 256.141 152.699 252.941 157.169 250.275C166.204 244.884 178.417 240.168 190.21 236.318C197.951 233.79 205.748 231.561 212.738 229.704C177.551 209.481 154.063 175.695 149.255 139.938C146.312 118.056 150.408 95.5227 163.079 75.3234C175.737 55.1449 196.611 37.8265 226.382 25.6681C229.554 24.3724 233.188 24.9913 235.753 27.2638C238.318 29.5365 239.37 33.0685 238.466 36.3742C224.838 86.2001 229.998 108.808 239.73 120.103C244.697 125.866 251.656 129.711 260.559 132.504C269.572 135.332 279.786 136.857 290.929 138.498C296.322 139.293 301.922 140.115 307.462 141.138C314.962 132.619 324.693 124.016 336.853 115.528C345.047 83.5966 362.981 64.0832 386.609 58.3771C405.54 53.8057 426.254 58.5895 445.634 70.1457C447.028 64.8895 449.716 60.165 453.566 56.2033C461.49 48.0505 473.272 44.2018 485.601 44.2707C506.867 44.3895 531.589 55.965 549.623 81.4709C550.226 80.8178 550.858 80.1943 551.521 79.6027C556.618 75.0566 562.791 72.9945 569.031 72.6828C581.057 72.082 593.884 77.86 604.267 85.6896C614.815 93.6441 624.307 104.799 629.175 117.073C632.433 125.289 633.707 134.383 631.462 143.189C655.702 144.725 672.918 141.936 684.956 136.813C698.642 130.988 706.08 121.981 709.893 111.538C713.835 100.745 714.092 87.8338 712.037 74.4601C709.995 61.1676 705.772 48.0816 701.441 37.3752C700.093 34.0423 700.858 30.227 703.387 27.6711ZM276.076 346.042C267.973 356.67 261.219 369.995 255.953 384.533C248.344 405.542 244.174 428.178 243.318 446.788C242.89 456.102 243.305 464.135 244.411 470.302C245.468 476.192 246.946 479.17 247.858 480.33C248.043 480.248 248.277 480.131 248.562 479.963C251.261 478.374 255.717 474.024 261.7 464.655C263.868 461.262 268.025 459.722 271.881 460.883C275.736 462.044 278.351 465.625 278.284 469.651C277.643 507.99 290.97 546.85 304.246 568.958C307.537 574.439 310.663 578.614 313.353 581.408C314.037 582.119 314.641 582.684 315.16 583.133C315.504 581.354 315.785 578.727 315.785 575C315.785 570.644 318.905 566.913 323.192 566.142C327.48 565.371 331.705 567.783 333.222 571.866C348.59 613.239 384.991 637.108 413.803 655.767C423.624 662.127 433.063 668.209 439.673 674.137C443.34 677.425 447.185 681.586 449.315 686.572C467.688 684.222 478.407 681.118 487.257 676.061C497.625 670.136 506.166 661.172 521.168 644.9L521.406 644.651C523.911 642.134 527.676 641.317 531.011 642.598C534.453 643.92 536.741 647.208 536.784 650.896C536.798 652.096 536.882 652.987 536.981 653.633C539.136 652.874 542.288 651.105 546.337 648.023C550.409 644.923 554.946 640.843 559.703 636.041C569.217 626.437 579.2 614.36 587.583 602.494C596.058 590.498 602.48 579.308 605.32 571.444C606.805 567.332 611.03 564.881 615.337 565.635C619.643 566.389 622.785 570.128 622.785 574.5C622.785 578.268 623.06 581.043 623.459 583.008C623.494 583.181 623.532 583.345 623.568 583.501C625.185 582.331 627.4 580.305 630.099 577.124C633.803 572.758 637.827 566.928 641.81 560.052C649.783 546.285 657.177 529.038 661.381 512.453C665.676 495.507 666.223 480.879 662.423 471.328C660.619 466.797 662.754 461.653 667.235 459.73C671.717 457.806 676.916 459.803 678.958 464.232C684.008 475.183 688.169 481.35 691.146 484.3C691.315 484.467 691.474 484.617 691.621 484.751C692.209 483.558 692.842 481.83 693.421 479.48C694.724 474.19 695.5 466.813 695.489 457.823C695.451 426.839 686.177 382.087 665.247 348.77C656.031 389.045 633.938 422.345 596.602 445.55C604.801 473.211 601.931 499.791 593.621 520.132C589.119 531.153 582.909 540.611 575.695 547.446C571.005 551.891 565.588 555.49 559.727 557.431C558.897 574.103 547.155 586.353 532.565 594.149C515.525 603.254 492.579 607.709 470.314 607.937C448.072 608.165 425.127 604.188 408.165 595.135C399.627 590.578 392.143 584.485 387.293 576.524C383.778 570.754 381.827 564.285 381.682 557.275C376.251 555.367 371.082 552.024 366.509 547.987C359.11 541.458 352.322 532.323 347.181 521.44C337.697 501.365 333.523 474.7 342.034 445.989C310.932 428.607 285.849 394.489 276.076 346.042ZM470.285 548C453.378 548 435.543 551.559 419.864 554.715C412.842 556.129 405.856 557.551 399.754 558.35C400.043 561.652 401.077 564.551 402.665 567.158C405.36 571.581 409.998 575.71 416.64 579.255C430.037 586.405 449.685 590.147 470.13 589.938C490.553 589.728 510.389 585.59 524.083 578.274C534.632 572.637 540.31 565.975 541.508 558.415C534.603 557.594 527.01 556.026 519.405 554.476C504.213 551.378 487.508 548 470.285 548ZM543.752 428.919C533.923 427.706 524.959 430.016 513.501 433.101C501.593 436.307 487.54 440.156 470.259 438.541C452.855 440.144 438.513 436.539 426.264 433.507C414.478 430.59 405.113 428.365 394.996 429.588C385.601 430.724 374.667 435.004 360.682 446.786C351.727 472.62 355.254 496.387 363.456 513.751C367.689 522.711 373.08 529.78 378.419 534.491C383.943 539.366 388.546 541 391.285 541C396.556 541 404.875 539.372 416.312 537.07C431.687 533.975 451.284 530 470.285 530C489.596 530 508.024 533.785 523.002 536.839C534.704 539.225 543.62 541 550.285 541C553.601 541 558.192 539.234 563.314 534.381C568.345 529.614 573.236 522.435 576.958 513.324C584.18 495.647 586.588 471.702 578.087 446.721C563.811 434.43 552.909 430.049 543.752 428.919ZM553.396 199.053C552.529 200.459 551.557 201.996 550.49 203.623C545.756 210.842 538.939 220.193 530.96 227.863C523.296 235.231 512.962 242.614 501.24 242.749C491.195 242.865 482.553 237.776 475.478 228.316C469.936 232.137 462.982 236.174 455.625 239.838C443.353 245.95 428.672 251.675 415.382 253.879C408.745 254.979 401.92 255.295 395.701 253.982C389.341 252.638 383.195 249.473 379.072 243.399C375.03 237.443 373.795 229.955 374.555 221.646C374.727 219.759 375.006 217.793 375.39 215.746C362.695 221.954 350.382 225.222 339.103 225.867C326.916 226.565 315.612 224.176 306.65 218.816L295.411 242.8C292.323 258.785 290.549 273.824 289.918 287.902C289.318 301.308 289.752 313.84 291.067 325.49C296.975 377.806 320.566 412.214 348.534 428.953C357.676 409.458 372.939 389.741 396.128 371C399.994 367.876 405.661 368.477 408.785 372.343C411.909 376.209 411.308 381.876 407.442 385C394.916 395.124 385.12 405.372 377.58 415.489C382.769 413.536 387.831 412.324 392.835 411.719C406.737 410.038 419.261 413.231 430.589 416.034C443.166 419.147 455.012 422.016 469.369 420.547L469.83 420.512C470.292 420.489 470.755 420.5 471.215 420.548C485.223 422.003 496.61 419.007 508.822 415.719C519.813 412.76 532.109 409.346 545.956 411.055C550.888 411.663 555.883 412.895 561.018 414.88C553.38 404.735 543.481 394.714 530.86 385.182C526.894 382.186 526.108 376.542 529.103 372.575C532.099 368.609 537.743 367.823 541.709 370.819C565.224 388.58 580.751 408.363 590.077 428.365C626.723 404.408 645.95 369.261 650.975 325.474C652.335 313.617 652.653 301.098 651.968 287.97C651.213 273.515 649.239 258.346 646.112 242.545C642.984 234.603 640.794 229.377 637.499 223.239C628.929 225.778 618.427 225.513 606.626 222.725C592.016 219.272 574.3 211.719 553.396 199.053ZM238.113 242.043C235.551 242.61 231.886 243.446 227.502 244.517C218.713 246.663 207.132 249.727 195.797 253.428C184.329 257.172 173.661 261.396 166.392 265.733C162.709 267.929 160.53 269.79 159.474 271.131C159.312 271.336 159.2 271.499 159.122 271.621C166.543 295.804 177.614 310.135 189.399 318.539C201.352 327.063 214.897 330.102 228.075 330.188C241.311 330.273 253.842 327.367 263.189 324.35C266.918 323.146 270.089 321.939 272.535 320.936C271.808 312.321 271.522 303.336 271.714 293.987C256.629 289.495 248.192 289.84 241.05 291.111C233.133 292.519 222.243 296.5 206.785 296.5C201.815 296.5 197.785 292.471 197.785 287.5C197.785 282.53 201.815 278.5 206.785 278.5C220.282 278.5 226.141 275.48 237.896 273.389C247.328 271.711 257.597 271.567 272.679 275.561C273.406 266.868 274.53 257.892 276.072 248.638C263.271 247.773 251.12 245.373 239.766 241.685C239.283 241.789 238.73 241.907 238.113 242.043ZM698.752 241.707C688.266 244.983 677.143 247.254 665.493 248.344C667.083 257.543 668.293 266.577 669.103 275.426C683.63 271.532 694.877 271.782 705.58 273.345C719.082 275.317 728.43 278.5 743.785 278.5C748.756 278.5 752.785 282.53 752.785 287.5C752.785 292.471 748.756 296.5 743.785 296.5C726.794 296.5 713.446 292.684 702.979 291.155C693.653 289.794 683.998 289.559 670.213 293.836C670.471 303.181 670.238 312.3 669.486 321.168C671.655 322.133 674.433 323.277 677.697 324.419C686.212 327.4 697.725 330.272 710.164 330.188C722.513 330.104 735.641 327.116 747.855 318.51C759.469 310.326 770.899 296.609 779.951 273.978C779.543 273.493 778.992 272.912 778.249 272.241C776.079 270.284 772.925 268.137 768.841 265.886C760.686 261.392 750.001 257.12 739.109 253.387C728.289 249.678 717.592 246.612 709.575 244.468C705.575 243.398 702.259 242.563 699.951 241.997C699.515 241.89 699.114 241.795 698.752 241.707ZM353.259 258.903C363.11 257.871 374.03 261.464 384.867 266.98C389.297 269.234 391.06 274.653 388.806 279.083C386.551 283.513 381.132 285.275 376.702 283.021C366.805 277.983 359.725 276.325 355.135 276.806C353.052 277.024 351.58 277.67 350.414 278.613C349.202 279.595 347.844 281.289 346.658 284.299C344.836 288.923 339.611 291.196 334.986 289.374C330.362 287.552 328.089 282.326 329.911 277.701C331.975 272.462 334.964 267.962 339.09 264.622C343.262 261.245 348.121 259.442 353.259 258.903ZM555.702 266.98C566.539 261.464 577.459 257.871 587.311 258.903C592.449 259.442 597.308 261.245 601.48 264.622C605.606 267.962 608.594 272.462 610.658 277.701C612.48 282.326 610.209 287.552 605.584 289.374C600.959 291.196 595.733 288.924 593.911 284.299C592.725 281.289 591.367 279.595 590.155 278.613C588.989 277.67 587.517 277.024 585.435 276.806C580.845 276.325 573.765 277.983 563.867 283.021C559.438 285.275 554.02 283.512 551.765 279.083C549.51 274.654 551.273 269.235 555.702 266.98ZM485.5 62.2707C476.667 62.2213 470.118 64.9998 466.475 68.7482C463.165 72.1537 461.273 77.3252 463.449 85.0646C464.509 88.8348 463.009 92.8578 459.739 95.0138C456.47 97.1696 452.182 96.9639 449.134 94.505C428.416 77.7893 407.354 71.8851 390.835 75.8742C374.932 79.7146 360.298 93.4936 353.56 123.004C353.051 125.231 351.714 127.181 349.821 128.459C335.367 138.22 325.009 147.777 317.972 156.609C301.945 176.722 303.976 191.251 310.28 198.674C315.202 204.468 324.616 208.667 338.075 207.897C351.43 207.133 368.136 201.424 385.935 188.264C389.197 185.852 393.669 185.921 396.855 188.432C400.042 190.943 401.154 195.276 399.571 199.012C395.083 209.604 393.006 217.526 392.479 223.284C391.954 229.029 393.023 231.901 393.966 233.289C394.827 234.558 396.347 235.721 399.42 236.37C402.635 237.049 407.012 237.021 412.437 236.121C423.272 234.325 436.154 229.426 447.601 223.725C459.232 217.932 468.103 211.953 471.421 208.636C473.45 206.607 476.326 205.667 479.162 206.107C481.998 206.546 484.455 208.311 485.775 210.86C492.098 223.061 497.687 224.79 501.033 224.751C505.576 224.699 511.587 221.519 518.485 214.887C525.069 208.558 531.033 200.47 535.438 193.752C537.615 190.433 539.358 187.533 540.549 185.474C541.143 184.446 541.598 183.632 541.899 183.085C542.05 182.812 542.161 182.605 542.232 182.473C542.268 182.407 542.293 182.359 542.309 182.33C542.316 182.316 542.321 182.307 542.323 182.303C542.324 182.301 542.325 182.3 542.325 182.3C543.501 180.071 545.558 178.437 547.996 177.796C550.435 177.155 553.033 177.566 555.154 178.931C578.547 193.978 596.994 201.953 610.766 205.207C624.759 208.514 632.598 206.673 636.305 204.211C639.937 201.798 642.268 196.663 639.042 187.611C635.829 178.596 627.363 167.647 612.997 158.62C610.85 157.271 609.371 155.079 608.925 152.582C608.479 150.086 609.108 147.517 610.655 145.508C615.321 139.451 615.761 132.076 612.442 123.708C609.044 115.139 601.943 106.481 593.429 100.061C584.749 93.5155 576.045 90.3559 569.93 90.6613C567.1 90.8027 565.05 91.6548 563.504 93.0343C561.916 94.4507 560.147 97.0627 559.075 101.934C558.258 105.648 555.194 108.448 551.421 108.928C547.648 109.408 543.981 107.465 542.26 104.073C526.844 73.7029 502.888 62.3679 485.5 62.2707ZM216.565 50.259C198.771 60.1294 186.342 72.1109 178.327 84.8879C168.031 101.301 164.677 119.557 167.095 137.538C171.959 173.709 200.347 209.103 243.215 223.861C254.85 227.866 267.547 230.343 281.116 230.886L293.033 205.454C284.91 192.13 285.881 174.924 295.733 157.419C293.298 157.042 290.822 156.676 288.307 156.306C277.48 154.711 265.792 153.011 255.171 149.679C244.44 146.312 234.03 141.063 226.094 131.853C212.092 115.603 208.173 90.0912 216.565 50.259ZM725.198 51.0099C727.105 57.6172 728.735 64.605 729.829 71.7277C732.134 86.7289 732.171 103.005 726.801 117.712C721.302 132.769 710.334 145.575 692.005 153.375C679.419 158.731 663.613 161.629 644.043 161.61C649.556 168.041 653.597 174.832 655.998 181.569C659.899 192.515 659.64 204.596 652.637 213.403C655.924 219.388 658.217 224.444 660.756 230.676C673.106 229.775 684.76 227.399 695.568 223.825C740.6 208.937 770.564 173.528 775.862 137.621C778.493 119.794 775.115 101.664 764.383 85.2716C756.174 72.7334 743.444 60.8918 725.198 51.0099Z" fill="#020122"/>
<path d="M427.785 490C418.285 503.5 374.785 486 387.785 460.5C401.285 441 434.785 472 427.785 490Z" fill="#020122"/>
<path d="M513.736 489.716C523.236 503.216 566.736 485.716 553.736 460.216C540.236 440.716 506.736 471.716 513.736 489.716Z" fill="#020122"/>
<path d="M368.285 350C339.785 353.5 344.785 297 368.285 294C386.785 289.889 396.785 346.5 368.285 350Z" fill="#020122"/>
<path d="M569.605 350.214C598.105 353.714 593.105 297.214 569.605 294.214C551.105 290.102 541.105 346.714 569.605 350.214Z" fill="#020122"/>
<path d="M266.375 924.25V1011H90.25V967.25L175 856.125H135.625L125.625 895H89.5V812.125H263.875V853L179.375 966.25H217.75L231.375 924.25H266.375ZM385.875 1014.62C356.208 1014.62 334.833 1006.88 321.75 991.375C308.75 975.792 302.25 952.958 302.25 922.875V856.125H282V812.125H390.5V856.125H372.125V939.875C372.125 948.042 374.125 954.75 378.125 960C382.125 965.167 388.417 967.75 397 967.75C404.167 967.75 409.833 965.625 414 961.375C418.167 957.042 420.25 951.208 420.25 943.875V856.125H399.75V812.125H481.375V856.125H462.25V942.125C462.25 958.042 459.042 971.417 452.625 982.25C446.292 993 437.417 1001.08 426 1006.5C414.583 1011.92 401.208 1014.62 385.875 1014.62ZM608.5 1011H496.375V967H520.5V856.125H499.75V811.875H601.375C617.875 811.875 631.958 813.208 643.625 815.875C655.042 818.625 664.125 823.875 670.875 831.625C677.625 839.292 681 850.167 681 864.25C681 874.167 678.125 882.792 672.375 890.125C666.625 897.458 659.333 902.75 650.5 906C662.083 911 670.625 917.458 676.125 925.375C681.708 933.292 684.5 944.167 684.5 958C684.5 974.917 677.875 988 664.625 997.25C651.458 1006.42 632.75 1011 608.5 1011ZM584.5 856.125V892.25H591.375C600.875 892.25 607.875 890.917 612.375 888.25C616.958 885.583 619.25 880.583 619.25 873.25C619.25 868.167 617.667 864.042 614.5 860.875C611.333 857.708 607.208 856.125 602.125 856.125H584.5ZM584.5 925V967H589C599.083 967 606.833 965.583 612.25 962.75C617.75 959.917 620.5 954.083 620.5 945.25C620.5 931.583 612.167 924.75 595.5 924.75C593.667 924.75 591.833 924.792 590 924.875C588.167 924.875 586.333 924.917 584.5 925ZM819 1011H715.125V967H735.125V856.125H715.125V812.125H842.875C863.542 812.125 878.708 816.292 888.375 824.625C898.125 832.958 903 846.792 903 866.125C903 879.042 899.375 889 892.125 896C884.875 903 874.583 907.708 861.25 910.125C873.25 912.042 881.875 916.542 887.125 923.625C892.458 930.708 895.125 939.542 895.125 950.125V966.25H923V1011H882.75C874.167 1011 867.25 1010.71 862 1010.12C856.75 1009.46 852.583 1007.96 849.5 1005.62C846.5 1003.21 844 999.458 842 994.375C839 986.708 837.5 973.917 837.5 956C837.5 945.75 835.833 938.167 832.5 933.25C829.167 928.25 823.083 925.75 814.25 925.75H799.125V967H819V1011ZM799.125 856.125V897.375H816.25C825.333 897.375 832.083 895.75 836.5 892.5C840.917 889.25 843.125 883.542 843.125 875.375C843.125 869.375 840.833 864.667 836.25 861.25C831.75 857.833 825.917 856.125 818.75 856.125H799.125Z" fill="#FBFBFB"/>
<path d="M251.375 907.25V994H75.25V950.25L160 839.125H120.625L110.625 878H74.5V795.125H248.875V836L164.375 949.25H202.75L216.375 907.25H251.375ZM370.875 997.625C341.208 997.625 319.833 989.875 306.75 974.375C293.75 958.792 287.25 935.958 287.25 905.875V839.125H267V795.125H375.5V839.125H357.125V922.875C357.125 931.042 359.125 937.75 363.125 943C367.125 948.167 373.417 950.75 382 950.75C389.167 950.75 394.833 948.625 399 944.375C403.167 940.042 405.25 934.208 405.25 926.875V839.125H384.75V795.125H466.375V839.125H447.25V925.125C447.25 941.042 444.042 954.417 437.625 965.25C431.292 976 422.417 984.083 411 989.5C399.583 994.917 386.208 997.625 370.875 997.625ZM593.5 994H481.375V950H505.5V839.125H484.75V794.875H586.375C602.875 794.875 616.958 796.208 628.625 798.875C640.042 801.625 649.125 806.875 655.875 814.625C662.625 822.292 666 833.167 666 847.25C666 857.167 663.125 865.792 657.375 873.125C651.625 880.458 644.333 885.75 635.5 889C647.083 894 655.625 900.458 661.125 908.375C666.708 916.292 669.5 927.167 669.5 941C669.5 957.917 662.875 971 649.625 980.25C636.458 989.417 617.75 994 593.5 994ZM569.5 839.125V875.25H576.375C585.875 875.25 592.875 873.917 597.375 871.25C601.958 868.583 604.25 863.583 604.25 856.25C604.25 851.167 602.667 847.042 599.5 843.875C596.333 840.708 592.208 839.125 587.125 839.125H569.5ZM569.5 908V950H574C584.083 950 591.833 948.583 597.25 945.75C602.75 942.917 605.5 937.083 605.5 928.25C605.5 914.583 597.167 907.75 580.5 907.75C578.667 907.75 576.833 907.792 575 907.875C573.167 907.875 571.333 907.917 569.5 908ZM804 994H700.125V950H720.125V839.125H700.125V795.125H827.875C848.542 795.125 863.708 799.292 873.375 807.625C883.125 815.958 888 829.792 888 849.125C888 862.042 884.375 872 877.125 879C869.875 886 859.583 890.708 846.25 893.125C858.25 895.042 866.875 899.542 872.125 906.625C877.458 913.708 880.125 922.542 880.125 933.125V949.25H908V994H867.75C859.167 994 852.25 993.708 847 993.125C841.75 992.458 837.583 990.958 834.5 988.625C831.5 986.208 829 982.458 827 977.375C824 969.708 822.5 956.917 822.5 939C822.5 928.75 820.833 921.167 817.5 916.25C814.167 911.25 808.083 908.75 799.25 908.75H784.125V950H804V994ZM784.125 839.125V880.375H801.25C810.333 880.375 817.083 878.75 821.5 875.5C825.917 872.25 828.125 866.542 828.125 858.375C828.125 852.375 825.833 847.667 821.25 844.25C816.75 840.833 810.917 839.125 803.75 839.125H784.125Z" fill="#020122"/>
<path d="M236.375 890.25V977H60.25V933.25L145 822.125H105.625L95.625 861H59.5V778.125H233.875V819L149.375 932.25H187.75L201.375 890.25H236.375ZM355.875 980.625C326.208 980.625 304.833 972.875 291.75 957.375C278.75 941.792 272.25 918.958 272.25 888.875V822.125H252V778.125H360.5V822.125H342.125V905.875C342.125 914.042 344.125 920.75 348.125 926C352.125 931.167 358.417 933.75 367 933.75C374.167 933.75 379.833 931.625 384 927.375C388.167 923.042 390.25 917.208 390.25 909.875V822.125H369.75V778.125H451.375V822.125H432.25V908.125C432.25 924.042 429.042 937.417 422.625 948.25C416.292 959 407.417 967.083 396 972.5C384.583 977.917 371.208 980.625 355.875 980.625ZM578.5 977H466.375V933H490.5V822.125H469.75V777.875H571.375C587.875 777.875 601.958 779.208 613.625 781.875C625.042 784.625 634.125 789.875 640.875 797.625C647.625 805.292 651 816.167 651 830.25C651 840.167 648.125 848.792 642.375 856.125C636.625 863.458 629.333 868.75 620.5 872C632.083 877 640.625 883.458 646.125 891.375C651.708 899.292 654.5 910.167 654.5 924C654.5 940.917 647.875 954 634.625 963.25C621.458 972.417 602.75 977 578.5 977ZM554.5 822.125V858.25H561.375C570.875 858.25 577.875 856.917 582.375 854.25C586.958 851.583 589.25 846.583 589.25 839.25C589.25 834.167 587.667 830.042 584.5 826.875C581.333 823.708 577.208 822.125 572.125 822.125H554.5ZM554.5 891V933H559C569.083 933 576.833 931.583 582.25 928.75C587.75 925.917 590.5 920.083 590.5 911.25C590.5 897.583 582.167 890.75 565.5 890.75C563.667 890.75 561.833 890.792 560 890.875C558.167 890.875 556.333 890.917 554.5 891ZM789 977H685.125V933H705.125V822.125H685.125V778.125H812.875C833.542 778.125 848.708 782.292 858.375 790.625C868.125 798.958 873 812.792 873 832.125C873 845.042 869.375 855 862.125 862C854.875 869 844.583 873.708 831.25 876.125C843.25 878.042 851.875 882.542 857.125 889.625C862.458 896.708 865.125 905.542 865.125 916.125V932.25H893V977H852.75C844.167 977 837.25 976.708 832 976.125C826.75 975.458 822.583 973.958 819.5 971.625C816.5 969.208 814 965.458 812 960.375C809 952.708 807.5 939.917 807.5 922C807.5 911.75 805.833 904.167 802.5 899.25C799.167 894.25 793.083 891.75 784.25 891.75H769.125V933H789V977ZM769.125 822.125V863.375H786.25C795.333 863.375 802.083 861.75 806.5 858.5C810.917 855.25 813.125 849.542 813.125 841.375C813.125 835.375 810.833 830.667 806.25 827.25C801.75 823.833 795.917 822.125 788.75 822.125H769.125Z" fill="#4F9D69"/>
</g>
<defs>
<clipPath id="clip0_4_127">
<rect width="940" height="1031" fill="white"/>
</clipPath>
</defs>
</svg>
