<svg width="940" height="290" viewBox="0 0 940 290" fill="none" xmlns="http://www.w3.org/2000/svg">
<g clip-path="url(#clip0_2_117)">
<path d="M266.375 183.25V270H90.25V226.25L175 115.125H135.625L125.625 154H89.5V71.125H263.875V112L179.375 225.25H217.75L231.375 183.25H266.375ZM385.875 273.625C356.208 273.625 334.833 265.875 321.75 250.375C308.75 234.792 302.25 211.958 302.25 181.875V115.125H282V71.125H390.5V115.125H372.125V198.875C372.125 207.042 374.125 213.75 378.125 219C382.125 224.167 388.417 226.75 397 226.75C404.167 226.75 409.833 224.625 414 220.375C418.167 216.042 420.25 210.208 420.25 202.875V115.125H399.75V71.125H481.375V115.125H462.25V201.125C462.25 217.042 459.042 230.417 452.625 241.25C446.292 252 437.417 260.083 426 265.5C414.583 270.917 401.208 273.625 385.875 273.625ZM608.5 270H496.375V226H520.5V115.125H499.75V70.875H601.375C617.875 70.875 631.958 72.2083 643.625 74.875C655.042 77.625 664.125 82.875 670.875 90.625C677.625 98.2917 681 109.167 681 123.25C681 133.167 678.125 141.792 672.375 149.125C666.625 156.458 659.333 161.75 650.5 165C662.083 170 670.625 176.458 676.125 184.375C681.708 192.292 684.5 203.167 684.5 217C684.5 233.917 677.875 247 664.625 256.25C651.458 265.417 632.75 270 608.5 270ZM584.5 115.125V151.25H591.375C600.875 151.25 607.875 149.917 612.375 147.25C616.958 144.583 619.25 139.583 619.25 132.25C619.25 127.167 617.667 123.042 614.5 119.875C611.333 116.708 607.208 115.125 602.125 115.125H584.5ZM584.5 184V226H589C599.083 226 606.833 224.583 612.25 221.75C617.75 218.917 620.5 213.083 620.5 204.25C620.5 190.583 612.167 183.75 595.5 183.75C593.667 183.75 591.833 183.792 590 183.875C588.167 183.875 586.333 183.917 584.5 184ZM819 270H715.125V226H735.125V115.125H715.125V71.125H842.875C863.542 71.125 878.708 75.2917 888.375 83.625C898.125 91.9583 903 105.792 903 125.125C903 138.042 899.375 148 892.125 155C884.875 162 874.583 166.708 861.25 169.125C873.25 171.042 881.875 175.542 887.125 182.625C892.458 189.708 895.125 198.542 895.125 209.125V225.25H923V270H882.75C874.167 270 867.25 269.708 862 269.125C856.75 268.458 852.583 266.958 849.5 264.625C846.5 262.208 844 258.458 842 253.375C839 245.708 837.5 232.917 837.5 215C837.5 204.75 835.833 197.167 832.5 192.25C829.167 187.25 823.083 184.75 814.25 184.75H799.125V226H819V270ZM799.125 115.125V156.375H816.25C825.333 156.375 832.083 154.75 836.5 151.5C840.917 148.25 843.125 142.542 843.125 134.375C843.125 128.375 840.833 123.667 836.25 120.25C831.75 116.833 825.917 115.125 818.75 115.125H799.125Z" fill="#FBFBFB"/>
<path d="M251.375 166.25V253H75.25V209.25L160 98.125H120.625L110.625 137H74.5V54.125H248.875V95L164.375 208.25H202.75L216.375 166.25H251.375ZM370.875 256.625C341.208 256.625 319.833 248.875 306.75 233.375C293.75 217.792 287.25 194.958 287.25 164.875V98.125H267V54.125H375.5V98.125H357.125V181.875C357.125 190.042 359.125 196.75 363.125 202C367.125 207.167 373.417 209.75 382 209.75C389.167 209.75 394.833 207.625 399 203.375C403.167 199.042 405.25 193.208 405.25 185.875V98.125H384.75V54.125H466.375V98.125H447.25V184.125C447.25 200.042 444.042 213.417 437.625 224.25C431.292 235 422.417 243.083 411 248.5C399.583 253.917 386.208 256.625 370.875 256.625ZM593.5 253H481.375V209H505.5V98.125H484.75V53.875H586.375C602.875 53.875 616.958 55.2083 628.625 57.875C640.042 60.625 649.125 65.875 655.875 73.625C662.625 81.2917 666 92.1667 666 106.25C666 116.167 663.125 124.792 657.375 132.125C651.625 139.458 644.333 144.75 635.5 148C647.083 153 655.625 159.458 661.125 167.375C666.708 175.292 669.5 186.167 669.5 200C669.5 216.917 662.875 230 649.625 239.25C636.458 248.417 617.75 253 593.5 253ZM569.5 98.125V134.25H576.375C585.875 134.25 592.875 132.917 597.375 130.25C601.958 127.583 604.25 122.583 604.25 115.25C604.25 110.167 602.667 106.042 599.5 102.875C596.333 99.7083 592.208 98.125 587.125 98.125H569.5ZM569.5 167V209H574C584.083 209 591.833 207.583 597.25 204.75C602.75 201.917 605.5 196.083 605.5 187.25C605.5 173.583 597.167 166.75 580.5 166.75C578.667 166.75 576.833 166.792 575 166.875C573.167 166.875 571.333 166.917 569.5 167ZM804 253H700.125V209H720.125V98.125H700.125V54.125H827.875C848.542 54.125 863.708 58.2917 873.375 66.625C883.125 74.9583 888 88.7917 888 108.125C888 121.042 884.375 131 877.125 138C869.875 145 859.583 149.708 846.25 152.125C858.25 154.042 866.875 158.542 872.125 165.625C877.458 172.708 880.125 181.542 880.125 192.125V208.25H908V253H867.75C859.167 253 852.25 252.708 847 252.125C841.75 251.458 837.583 249.958 834.5 247.625C831.5 245.208 829 241.458 827 236.375C824 228.708 822.5 215.917 822.5 198C822.5 187.75 820.833 180.167 817.5 175.25C814.167 170.25 808.083 167.75 799.25 167.75H784.125V209H804V253ZM784.125 98.125V139.375H801.25C810.333 139.375 817.083 137.75 821.5 134.5C825.917 131.25 828.125 125.542 828.125 117.375C828.125 111.375 825.833 106.667 821.25 103.25C816.75 99.8333 810.917 98.125 803.75 98.125H784.125Z" fill="#020122"/>
<path d="M236.375 149.25V236H60.25V192.25L145 81.125H105.625L95.625 120H59.5V37.125H233.875V78L149.375 191.25H187.75L201.375 149.25H236.375ZM355.875 239.625C326.208 239.625 304.833 231.875 291.75 216.375C278.75 200.792 272.25 177.958 272.25 147.875V81.125H252V37.125H360.5V81.125H342.125V164.875C342.125 173.042 344.125 179.75 348.125 185C352.125 190.167 358.417 192.75 367 192.75C374.167 192.75 379.833 190.625 384 186.375C388.167 182.042 390.25 176.208 390.25 168.875V81.125H369.75V37.125H451.375V81.125H432.25V167.125C432.25 183.042 429.042 196.417 422.625 207.25C416.292 218 407.417 226.083 396 231.5C384.583 236.917 371.208 239.625 355.875 239.625ZM578.5 236H466.375V192H490.5V81.125H469.75V36.875H571.375C587.875 36.875 601.958 38.2083 613.625 40.875C625.042 43.625 634.125 48.875 640.875 56.625C647.625 64.2917 651 75.1667 651 89.25C651 99.1667 648.125 107.792 642.375 115.125C636.625 122.458 629.333 127.75 620.5 131C632.083 136 640.625 142.458 646.125 150.375C651.708 158.292 654.5 169.167 654.5 183C654.5 199.917 647.875 213 634.625 222.25C621.458 231.417 602.75 236 578.5 236ZM554.5 81.125V117.25H561.375C570.875 117.25 577.875 115.917 582.375 113.25C586.958 110.583 589.25 105.583 589.25 98.25C589.25 93.1667 587.667 89.0417 584.5 85.875C581.333 82.7083 577.208 81.125 572.125 81.125H554.5ZM554.5 150V192H559C569.083 192 576.833 190.583 582.25 187.75C587.75 184.917 590.5 179.083 590.5 170.25C590.5 156.583 582.167 149.75 565.5 149.75C563.667 149.75 561.833 149.792 560 149.875C558.167 149.875 556.333 149.917 554.5 150ZM789 236H685.125V192H705.125V81.125H685.125V37.125H812.875C833.542 37.125 848.708 41.2917 858.375 49.625C868.125 57.9583 873 71.7917 873 91.125C873 104.042 869.375 114 862.125 121C854.875 128 844.583 132.708 831.25 135.125C843.25 137.042 851.875 141.542 857.125 148.625C862.458 155.708 865.125 164.542 865.125 175.125V191.25H893V236H852.75C844.167 236 837.25 235.708 832 235.125C826.75 234.458 822.583 232.958 819.5 230.625C816.5 228.208 814 224.458 812 219.375C809 211.708 807.5 198.917 807.5 181C807.5 170.75 805.833 163.167 802.5 158.25C799.167 153.25 793.083 150.75 784.25 150.75H769.125V192H789V236ZM769.125 81.125V122.375H786.25C795.333 122.375 802.083 120.75 806.5 117.5C810.917 114.25 813.125 108.542 813.125 100.375C813.125 94.375 810.833 89.6667 806.25 86.25C801.75 82.8333 795.917 81.125 788.75 81.125H769.125Z" fill="#4F9D69"/>
</g>
<defs>
<clipPath id="clip0_2_117">
<rect width="940" height="290" fill="white"/>
</clipPath>
</defs>
</svg>
