<svg width="1224" height="296" viewBox="0 0 1224 296" fill="none" xmlns="http://www.w3.org/2000/svg">
<g clip-path="url(#clip0_2_117)">
<path d="M542.375 175.25V262H366.25V218.25L451 107.125H411.625L401.625 146H365.5V63.125H539.875V104L455.375 217.25H493.75L507.375 175.25H542.375ZM661.875 265.625C632.208 265.625 610.833 257.875 597.75 242.375C584.75 226.792 578.25 203.958 578.25 173.875V107.125H558V63.125H666.5V107.125H648.125V190.875C648.125 199.042 650.125 205.75 654.125 211C658.125 216.167 664.417 218.75 673 218.75C680.167 218.75 685.833 216.625 690 212.375C694.167 208.042 696.25 202.208 696.25 194.875V107.125H675.75V63.125H757.375V107.125H738.25V193.125C738.25 209.042 735.042 222.417 728.625 233.25C722.292 244 713.417 252.083 702 257.5C690.583 262.917 677.208 265.625 661.875 265.625ZM884.5 262H772.375V218H796.5V107.125H775.75V62.875H877.375C893.875 62.875 907.958 64.2083 919.625 66.875C931.042 69.625 940.125 74.875 946.875 82.625C953.625 90.2917 957 101.167 957 115.25C957 125.167 954.125 133.792 948.375 141.125C942.625 148.458 935.333 153.75 926.5 157C938.083 162 946.625 168.458 952.125 176.375C957.708 184.292 960.5 195.167 960.5 209C960.5 225.917 953.875 239 940.625 248.25C927.458 257.417 908.75 262 884.5 262ZM860.5 107.125V143.25H867.375C876.875 143.25 883.875 141.917 888.375 139.25C892.958 136.583 895.25 131.583 895.25 124.25C895.25 119.167 893.667 115.042 890.5 111.875C887.333 108.708 883.208 107.125 878.125 107.125H860.5ZM860.5 176V218H865C875.083 218 882.833 216.583 888.25 213.75C893.75 210.917 896.5 205.083 896.5 196.25C896.5 182.583 888.167 175.75 871.5 175.75C869.667 175.75 867.833 175.792 866 175.875C864.167 175.875 862.333 175.917 860.5 176ZM1095 262H991.125V218H1011.12V107.125H991.125V63.125H1118.88C1139.54 63.125 1154.71 67.2917 1164.38 75.625C1174.12 83.9583 1179 97.7917 1179 117.125C1179 130.042 1175.38 140 1168.12 147C1160.88 154 1150.58 158.708 1137.25 161.125C1149.25 163.042 1157.88 167.542 1163.12 174.625C1168.46 181.708 1171.12 190.542 1171.12 201.125V217.25H1199V262H1158.75C1150.17 262 1143.25 261.708 1138 261.125C1132.75 260.458 1128.58 258.958 1125.5 256.625C1122.5 254.208 1120 250.458 1118 245.375C1115 237.708 1113.5 224.917 1113.5 207C1113.5 196.75 1111.83 189.167 1108.5 184.25C1105.17 179.25 1099.08 176.75 1090.25 176.75H1075.12V218H1095V262ZM1075.12 107.125V148.375H1092.25C1101.33 148.375 1108.08 146.75 1112.5 143.5C1116.92 140.25 1119.12 134.542 1119.12 126.375C1119.12 120.375 1116.83 115.667 1112.25 112.25C1107.75 108.833 1101.92 107.125 1094.75 107.125H1075.12Z" fill="#FBFBFB"/>
<path d="M527.375 158.25V245H351.25V201.25L436 90.125H396.625L386.625 129H350.5V46.125H524.875V87L440.375 200.25H478.75L492.375 158.25H527.375ZM646.875 248.625C617.208 248.625 595.833 240.875 582.75 225.375C569.75 209.792 563.25 186.958 563.25 156.875V90.125H543V46.125H651.5V90.125H633.125V173.875C633.125 182.042 635.125 188.75 639.125 194C643.125 199.167 649.417 201.75 658 201.75C665.167 201.75 670.833 199.625 675 195.375C679.167 191.042 681.25 185.208 681.25 177.875V90.125H660.75V46.125H742.375V90.125H723.25V176.125C723.25 192.042 720.042 205.417 713.625 216.25C707.292 227 698.417 235.083 687 240.5C675.583 245.917 662.208 248.625 646.875 248.625ZM869.5 245H757.375V201H781.5V90.125H760.75V45.875H862.375C878.875 45.875 892.958 47.2083 904.625 49.875C916.042 52.625 925.125 57.875 931.875 65.625C938.625 73.2917 942 84.1667 942 98.25C942 108.167 939.125 116.792 933.375 124.125C927.625 131.458 920.333 136.75 911.5 140C923.083 145 931.625 151.458 937.125 159.375C942.708 167.292 945.5 178.167 945.5 192C945.5 208.917 938.875 222 925.625 231.25C912.458 240.417 893.75 245 869.5 245ZM845.5 90.125V126.25H852.375C861.875 126.25 868.875 124.917 873.375 122.25C877.958 119.583 880.25 114.583 880.25 107.25C880.25 102.167 878.667 98.0417 875.5 94.875C872.333 91.7083 868.208 90.125 863.125 90.125H845.5ZM845.5 159V201H850C860.083 201 867.833 199.583 873.25 196.75C878.75 193.917 881.5 188.083 881.5 179.25C881.5 165.583 873.167 158.75 856.5 158.75C854.667 158.75 852.833 158.792 851 158.875C849.167 158.875 847.333 158.917 845.5 159ZM1080 245H976.125V201H996.125V90.125H976.125V46.125H1103.88C1124.54 46.125 1139.71 50.2917 1149.38 58.625C1159.12 66.9583 1164 80.7917 1164 100.125C1164 113.042 1160.38 123 1153.12 130C1145.88 137 1135.58 141.708 1122.25 144.125C1134.25 146.042 1142.88 150.542 1148.12 157.625C1153.46 164.708 1156.12 173.542 1156.12 184.125V200.25H1184V245H1143.75C1135.17 245 1128.25 244.708 1123 244.125C1117.75 243.458 1113.58 241.958 1110.5 239.625C1107.5 237.208 1105 233.458 1103 228.375C1100 220.708 1098.5 207.917 1098.5 190C1098.5 179.75 1096.83 172.167 1093.5 167.25C1090.17 162.25 1084.08 159.75 1075.25 159.75H1060.12V201H1080V245ZM1060.12 90.125V131.375H1077.25C1086.33 131.375 1093.08 129.75 1097.5 126.5C1101.92 123.25 1104.12 117.542 1104.12 109.375C1104.12 103.375 1101.83 98.6667 1097.25 95.25C1092.75 91.8333 1086.92 90.125 1079.75 90.125H1060.12Z" fill="#020122"/>
<path d="M512.375 141.25V228H336.25V184.25L421 73.125H381.625L371.625 112H335.5V29.125H509.875V70L425.375 183.25H463.75L477.375 141.25H512.375ZM631.875 231.625C602.208 231.625 580.833 223.875 567.75 208.375C554.75 192.792 548.25 169.958 548.25 139.875V73.125H528V29.125H636.5V73.125H618.125V156.875C618.125 165.042 620.125 171.75 624.125 177C628.125 182.167 634.417 184.75 643 184.75C650.167 184.75 655.833 182.625 660 178.375C664.167 174.042 666.25 168.208 666.25 160.875V73.125H645.75V29.125H727.375V73.125H708.25V159.125C708.25 175.042 705.042 188.417 698.625 199.25C692.292 210 683.417 218.083 672 223.5C660.583 228.917 647.208 231.625 631.875 231.625ZM854.5 228H742.375V184H766.5V73.125H745.75V28.875H847.375C863.875 28.875 877.958 30.2083 889.625 32.875C901.042 35.625 910.125 40.875 916.875 48.625C923.625 56.2917 927 67.1667 927 81.25C927 91.1667 924.125 99.7917 918.375 107.125C912.625 114.458 905.333 119.75 896.5 123C908.083 128 916.625 134.458 922.125 142.375C927.708 150.292 930.5 161.167 930.5 175C930.5 191.917 923.875 205 910.625 214.25C897.458 223.417 878.75 228 854.5 228ZM830.5 73.125V109.25H837.375C846.875 109.25 853.875 107.917 858.375 105.25C862.958 102.583 865.25 97.5833 865.25 90.25C865.25 85.1667 863.667 81.0417 860.5 77.875C857.333 74.7083 853.208 73.125 848.125 73.125H830.5ZM830.5 142V184H835C845.083 184 852.833 182.583 858.25 179.75C863.75 176.917 866.5 171.083 866.5 162.25C866.5 148.583 858.167 141.75 841.5 141.75C839.667 141.75 837.833 141.792 836 141.875C834.167 141.875 832.333 141.917 830.5 142ZM1065 228H961.125V184H981.125V73.125H961.125V29.125H1088.88C1109.54 29.125 1124.71 33.2917 1134.38 41.625C1144.12 49.9583 1149 63.7917 1149 83.125C1149 96.0417 1145.38 106 1138.12 113C1130.88 120 1120.58 124.708 1107.25 127.125C1119.25 129.042 1127.88 133.542 1133.12 140.625C1138.46 147.708 1141.12 156.542 1141.12 167.125V183.25H1169V228H1128.75C1120.17 228 1113.25 227.708 1108 227.125C1102.75 226.458 1098.58 224.958 1095.5 222.625C1092.5 220.208 1090 216.458 1088 211.375C1085 203.708 1083.5 190.917 1083.5 173C1083.5 162.75 1081.83 155.167 1078.5 150.25C1075.17 145.25 1069.08 142.75 1060.25 142.75H1045.12V184H1065V228ZM1045.12 73.125V114.375H1062.25C1071.33 114.375 1078.08 112.75 1082.5 109.5C1086.92 106.25 1089.12 100.542 1089.12 92.375C1089.12 86.375 1086.83 81.6667 1082.25 78.25C1077.75 74.8333 1071.92 73.125 1064.75 73.125H1045.12Z" fill="#4F9D69"/>
<path d="M247.956 10.3502C249.014 9.28044 250.608 8.94279 252.009 9.4918C265.093 14.6199 274.252 21.8722 279.791 30.3326C285.345 38.8156 287.103 48.2808 285.747 57.4713C283.514 72.6063 272.921 86.7843 257.353 95.1754C259.841 95.902 262.581 96.7511 265.352 97.7008C270.068 99.3172 275.015 101.271 278.99 103.462C280.975 104.555 282.841 105.774 284.34 107.127C285.794 108.439 287.219 110.16 287.771 112.314C287.961 113.059 287.919 113.844 287.65 114.564C283.363 126.051 277.517 133.591 270.91 138.247C264.3 142.904 257.225 144.466 250.845 144.509C246.839 144.537 243.085 143.966 239.836 143.183C248.537 158.351 252.169 177.267 252.186 190.391C252.191 194.516 251.841 198.26 251.101 201.267C250.73 202.771 250.236 204.202 249.565 205.439C248.909 206.651 247.954 207.915 246.55 208.748C245.02 209.655 243.265 209.86 241.556 209.369C240.637 209.105 239.799 208.66 239.037 208.116C238.734 210.454 238.263 212.81 237.678 215.118C235.729 222.806 232.349 230.669 228.701 236.966C226.876 240.118 224.94 242.953 223.025 245.211C221.187 247.378 219.082 249.358 216.852 250.345C215.691 250.859 214.221 251.225 212.634 250.917C211.415 250.68 210.393 250.097 209.58 249.314C208.385 251.283 207.051 253.303 205.638 255.303C201.92 260.566 197.478 265.949 193.167 270.3C191.012 272.476 188.846 274.437 186.782 276.007C184.765 277.543 182.643 278.863 180.587 279.545C178.585 280.208 175.722 280.531 173.387 278.53C173.283 278.441 173.183 278.348 173.087 278.254C168.975 282.583 165.439 285.884 161.229 288.291C155.58 291.518 149.019 292.992 138.848 294.051C137.659 294.175 136.482 293.728 135.676 292.846C134.87 291.964 134.53 290.752 134.76 289.58C134.772 289.517 134.926 288.69 132.542 286.552C130.316 284.556 126.953 282.367 122.648 279.579C112.718 273.148 98.7585 264.194 90.1631 249.596C89.8521 249.868 89.5067 250.116 89.1231 250.33C87.8049 251.063 86.3902 251.197 85.1045 250.964C82.7882 250.546 80.7981 248.942 79.2705 247.355C77.6281 245.649 75.988 243.397 74.4268 240.797C69.39 232.41 64.4609 219.193 62.9473 205.087C62.4336 205.496 61.9195 205.856 61.4024 206.161C59.9944 206.99 58.363 207.541 56.6055 207.416C54.7911 207.287 53.2813 206.467 52.1338 205.343C50.0355 203.288 48.9866 200.081 48.4258 196.954C47.8342 193.655 47.6615 189.699 47.8574 185.435C48.2497 176.901 50.1404 166.677 53.5879 157.158C55.3395 152.322 57.5297 147.567 60.1963 143.274C56.8245 144.009 52.9883 144.535 48.9551 144.509C42.3231 144.467 35.0204 142.926 28.4404 138.234C21.8391 133.526 16.3223 125.9 12.836 114.335C12.8298 114.314 12.8232 114.293 12.8174 114.273C12.0625 111.605 13.0533 109.263 14.3711 107.591C15.6407 105.981 17.4535 104.642 19.3242 103.526C23.1061 101.27 28.2182 99.2959 33.1543 97.6842C36.3943 96.6263 39.6581 95.6928 42.584 94.9156C27.8556 86.4508 18.0234 72.3087 16.0108 57.3414C14.7792 48.1824 16.4942 38.7503 21.7979 30.2955C27.0962 21.8494 35.8338 14.6005 48.2949 9.51133C49.6228 8.96919 51.1432 9.22824 52.2168 10.1793C53.2905 11.1306 53.731 12.6091 53.3526 13.9928C47.6485 34.8485 49.8079 44.3118 53.8819 49.0397C55.9605 51.4518 58.8733 53.0609 62.5996 54.2301C66.3722 55.4137 70.6484 56.052 75.3125 56.7389C77.5701 57.0713 79.9135 57.4164 82.2324 57.8443C85.3717 54.2787 89.4454 50.6772 94.5352 47.1246C97.9652 33.7589 105.471 25.5913 115.361 23.2027C123.285 21.2893 131.956 23.2915 140.067 28.1285C140.651 25.9285 141.776 23.9508 143.388 22.2926C146.704 18.88 151.636 17.2686 156.797 17.2975C165.698 17.3472 176.046 22.1929 183.595 32.8688C183.847 32.5954 184.112 32.3342 184.39 32.0865C186.523 30.1838 189.107 29.3205 191.719 29.19C196.752 28.9386 202.122 31.3571 206.468 34.6344C210.883 37.9639 214.856 42.6335 216.894 47.7711C218.257 51.2099 218.791 55.0167 217.851 58.7027C227.997 59.3458 235.203 58.1782 240.242 56.0338C245.971 53.5959 249.083 49.8254 250.68 45.4547C252.33 40.937 252.437 35.532 251.577 29.9342C250.722 24.3705 248.955 18.893 247.143 14.4117C246.578 13.0169 246.898 11.42 247.956 10.3502Z" fill="#FBFBFB"/>
<path d="M241.678 3.23428C242.736 2.16455 244.33 1.82692 245.731 2.37588C258.815 7.50405 267.974 14.7571 273.513 23.2177C279.067 31.7007 280.825 41.1658 279.469 50.3564C277.236 65.4912 266.642 79.6684 251.074 88.0595C253.563 88.7861 256.302 89.6352 259.073 90.5849C263.79 92.2013 268.737 94.1551 272.712 96.3456C274.697 97.4393 276.563 98.6593 278.062 100.012C279.516 101.324 280.941 103.044 281.492 105.198C281.683 105.943 281.641 106.729 281.372 107.449C277.085 118.936 271.239 126.475 264.632 131.131C258.022 135.788 250.947 137.351 244.566 137.394C240.561 137.422 236.807 136.851 233.558 136.068C242.258 151.236 245.891 170.151 245.907 183.275C245.912 187.4 245.563 191.144 244.822 194.151C244.452 195.655 243.958 197.086 243.287 198.323C242.631 199.535 241.676 200.799 240.272 201.632C238.741 202.539 236.987 202.744 235.277 202.253C234.358 201.989 233.52 201.545 232.759 201.001C232.456 203.339 231.984 205.695 231.399 208.002C229.451 215.69 226.071 223.554 222.424 229.851C220.598 233.003 218.662 235.837 216.747 238.095C214.908 240.262 212.804 242.242 210.573 243.229C209.412 243.743 207.943 244.109 206.356 243.801C205.137 243.564 204.115 242.981 203.302 242.198C202.107 244.167 200.773 246.187 199.359 248.187C195.642 253.45 191.2 258.833 186.889 263.184C184.733 265.36 182.567 267.322 180.504 268.892C178.487 270.428 176.365 271.747 174.309 272.429C172.307 273.092 169.444 273.415 167.108 271.414C167.005 271.325 166.905 271.233 166.809 271.14C162.696 275.468 159.161 278.769 154.95 281.175C149.301 284.403 142.741 285.876 132.569 286.935C131.381 287.059 130.204 286.612 129.398 285.73C128.592 284.848 128.252 283.636 128.482 282.464C128.494 282.4 128.647 281.574 126.264 279.437C124.038 277.441 120.675 275.251 116.37 272.463C106.44 266.032 92.4802 257.078 83.8848 242.48C83.5738 242.752 83.2285 243.001 82.8448 243.215C81.5268 243.948 80.1118 244.082 78.8263 243.85C76.51 243.431 74.5199 241.827 72.9923 240.24C71.3497 238.534 69.7099 236.282 68.1485 233.682C63.1118 225.294 58.1827 212.077 56.669 197.971C56.1553 198.381 55.6412 198.74 55.1241 199.045C53.7161 199.874 52.0847 200.425 50.3272 200.3C48.5129 200.171 47.003 199.352 45.8556 198.227C43.7573 196.172 42.7084 192.965 42.1475 189.838C41.556 186.54 41.3833 182.584 41.5792 178.32C41.9714 169.786 43.8621 159.561 47.3097 150.042C49.0613 145.206 51.2514 140.451 53.9181 136.158C50.5462 136.893 46.7101 137.42 42.6768 137.394C36.0448 137.352 28.7422 135.81 22.1622 131.118C15.5608 126.41 10.0441 118.785 6.5577 107.219C6.55162 107.198 6.54489 107.178 6.53915 107.158C5.78405 104.49 6.77511 102.148 8.09286 100.476C9.36242 98.8658 11.1752 97.5262 13.046 96.4101C16.8278 94.1538 21.94 92.18 26.8761 90.5683C30.116 89.5104 33.3798 88.5769 36.3057 87.7997C21.5774 79.3348 11.7452 65.1928 9.73251 50.2255C8.50102 41.0666 10.2159 31.6343 15.5196 23.1796C20.818 14.7336 29.5556 7.48451 42.0167 2.39542C43.3445 1.85332 44.865 2.11241 45.9386 3.06338C47.0122 4.01465 47.4527 5.49321 47.0743 6.87686C41.3702 27.7327 43.5297 37.1959 47.6036 41.9237C49.6823 44.3359 52.5951 45.945 56.3214 47.1142C60.094 48.2978 64.3701 48.9361 69.0343 49.623C71.2918 49.9554 73.6353 50.3005 75.9542 50.7284C79.0934 47.1628 83.1671 43.5613 88.2569 40.0087C91.6869 26.6431 99.1933 18.4753 109.083 16.0868C117.007 14.1734 125.677 16.1756 133.789 21.0126C134.373 18.8126 135.498 16.8349 137.109 15.1767C140.426 11.7641 145.358 10.1537 150.519 10.1825C159.42 10.2323 169.768 15.077 177.316 25.7528C177.569 25.4796 177.834 25.2192 178.111 24.9716C180.244 23.0687 182.829 22.2056 185.441 22.0751C190.474 21.8237 195.844 24.2422 200.19 27.5194C204.605 30.8489 208.578 35.5178 210.615 40.6552C211.979 44.094 212.512 47.9008 211.572 51.5868C221.719 52.2299 228.925 51.0623 233.964 48.9179C239.692 46.4799 242.805 42.7096 244.401 38.3388C246.051 33.821 246.159 28.4161 245.299 22.8183C244.444 17.2545 242.677 11.7771 240.864 7.29581C240.3 5.90091 240.62 4.30412 241.678 3.23428Z" fill="#020122"/>
<path d="M88.7449 169.336C79.6742 193.72 95.0452 214.752 104.763 214.752C107.439 214.752 111.375 213.959 115.982 213.032C122.481 211.724 130.315 210.147 137.83 210.147C145.477 210.147 152.829 211.646 159.143 212.934C163.895 213.903 168.058 214.752 171.316 214.752C182.035 214.752 194.715 192.752 186.178 169.336C172.738 157.391 164.337 159.653 154.94 162.183C149.849 163.553 144.465 165.003 137.83 164.313C131.094 165.003 125.551 163.631 120.309 162.334C110.635 159.939 101.984 157.798 88.7449 169.336Z" fill="#FC9E4F"/>
<path d="M104.763 214.752C99.5308 242.796 175.921 241.331 171.316 214.752C168.058 214.752 163.895 213.903 159.143 212.934C152.829 211.646 145.477 210.147 137.83 210.147C130.315 210.147 122.481 211.724 115.982 213.032C111.375 213.959 107.439 214.752 104.763 214.752Z" fill="#FC9E4F"/>
<path d="M67.9849 70.1341C63.7055 65.0954 63.8294 56.9022 71.1295 47.7404C68.2355 47.1221 65.2185 46.6778 62.2076 46.2344C43.8156 43.5257 25.6531 40.8509 37.1632 -1.23279C-10.3123 18.1561 3.24224 68.6091 41.5583 81.7999C47.4964 83.8442 54.0293 84.9935 61.0219 84.9935L67.9849 70.1341Z" fill="#FC9E4F"/>
<path d="M238.079 -1.23279C245.613 17.3938 252.938 53.8097 199.57 47.7404C212.68 55.9779 216.371 68.5248 209.406 73.151C212.047 77.5686 213.179 80.2121 215.057 84.9935C221.564 84.7869 227.686 83.6596 233.311 81.7999C273.276 68.5864 288.165 18.398 238.079 -1.23279Z" fill="#FC9E4F"/>
<path fill-rule="evenodd" clip-rule="evenodd" d="M131.342 21.1609C112.925 6.30156 91.3685 8.60372 85.2992 35.1832C79.0066 39.4323 74.3638 43.6814 71.1295 47.7404C63.8294 56.9022 63.7055 65.0954 67.9849 70.1341C74.0428 77.2668 88.9242 78.0781 104.763 66.3669C89.0664 103.411 133.645 81.8542 140.97 74.5291C152.899 97.5507 171.316 62.5998 171.316 62.5998C191.325 75.4704 203.808 76.8698 209.406 73.151C216.371 68.5248 212.68 55.9779 199.57 47.7404C211.499 32.2531 175.921 5.46441 171.316 26.3931C157.294 -1.23278 126.406 3.60335 131.342 21.1609ZM3.88657 99.0157C1.33957 90.0164 41.5583 81.7999 41.5583 81.7999C47.4964 83.8442 54.0293 84.9935 61.0219 84.9935C59.6418 92.0224 58.8488 98.6526 58.5701 104.876C58.3104 110.673 58.497 116.116 59.0712 121.2C59.0712 121.2 17.0716 142.757 3.88657 99.0157ZM88.7449 169.336C74.1341 162.561 61.8997 146.248 59.0712 121.2C33.6053 142.757 32.9774 213.496 53.6969 181.056C53.1339 214.714 76.9277 248.865 76.9277 225.216C83.856 243.867 100.214 254.46 112.141 262.185C120.557 267.635 126.767 271.657 125.901 276.073C145.992 273.98 149.55 270.422 161.898 257.028C162.108 275.026 192.454 240.075 197.896 225.007C197.896 252.842 229.917 200.939 221.754 180.428C239.125 218.1 243.52 151.128 217.205 121.2C217.205 121.2 255.24 142.757 271.565 99.0157C269.263 90.0164 233.311 81.7999 233.311 81.7999C227.686 83.6596 221.564 84.7869 215.057 84.9935C216.434 91.8793 217.308 98.5203 217.64 104.876C217.937 110.555 217.801 116.006 217.205 121.2C214.819 141.993 205.062 158.662 186.178 169.336C194.715 192.752 182.035 214.752 171.316 214.752C175.921 241.331 99.5308 242.796 104.763 214.752C95.0452 214.752 79.6742 193.72 88.7449 169.336Z" fill="#854D27"/>
<path d="M140.97 74.5291C133.645 81.8542 89.0664 103.411 104.763 66.3669C88.9242 78.0781 74.0428 77.2668 67.9849 70.1341L61.0219 84.9935C59.6418 92.0224 58.8488 98.6526 58.5701 104.876C58.3104 110.673 58.497 116.116 59.0712 121.2C61.8997 146.248 74.1341 162.561 88.7449 169.336C101.984 157.798 110.635 159.939 120.309 162.334C125.551 163.631 131.094 165.003 137.83 164.313C144.465 165.003 149.849 163.553 154.94 162.183C164.337 159.653 172.738 157.391 186.178 169.336C205.062 158.662 214.819 141.993 217.205 121.2C217.801 116.006 217.937 110.555 217.64 104.876C217.308 98.5203 216.434 91.8793 215.057 84.9935C213.179 80.2121 212.047 77.5686 209.406 73.151C203.808 76.8698 191.325 75.4704 171.316 62.5998C171.316 62.5998 152.899 97.5507 140.97 74.5291Z" fill="#854D27"/>
<path d="M235.401 -3.88196C236.459 -4.95175 238.052 -5.28904 239.453 -4.73996C252.537 0.388208 261.696 7.64072 267.236 16.1013C272.789 24.5843 274.547 34.0493 273.191 43.2399C270.958 58.3751 260.365 72.5528 244.796 80.9439C247.285 81.6706 250.025 82.5195 252.796 83.4693C257.512 85.0857 262.459 87.0394 266.434 89.23C268.419 90.3236 270.285 91.543 271.784 92.8953C273.238 94.2074 274.663 95.9281 275.214 98.0822C275.405 98.8271 275.363 99.6124 275.094 100.333C270.807 111.82 264.961 119.359 258.354 124.015C251.744 128.673 244.669 130.235 238.288 130.278C234.283 130.305 230.529 129.735 227.28 128.952C235.981 144.12 239.613 163.035 239.629 176.16C239.634 180.284 239.286 184.028 238.545 187.035C238.174 188.539 237.679 189.97 237.009 191.207C236.352 192.419 235.398 193.684 233.994 194.516C232.463 195.423 230.71 195.628 229 195.137C228.081 194.873 227.243 194.429 226.481 193.885C226.178 196.223 225.706 198.579 225.121 200.886C223.173 208.575 219.793 216.438 216.146 222.735C214.32 225.887 212.385 228.722 210.47 230.979C208.631 233.147 206.526 235.126 204.296 236.114C203.135 236.627 201.665 236.993 200.078 236.685C198.86 236.448 197.837 235.865 197.024 235.082C195.829 237.051 194.495 239.071 193.082 241.072C189.364 246.334 184.922 251.717 180.611 256.069C178.456 258.244 176.29 260.206 174.227 261.776C172.209 263.312 170.088 264.631 168.031 265.312C166.029 265.976 163.166 266.299 160.831 264.298C160.727 264.209 160.628 264.117 160.531 264.023C156.419 268.352 152.883 271.653 148.672 274.059C143.023 277.287 136.463 278.76 126.291 279.819C125.103 279.943 123.926 279.496 123.12 278.614C122.314 277.732 121.974 276.52 122.204 275.348C122.216 275.285 122.37 274.459 119.986 272.321C117.76 270.325 114.398 268.135 110.093 265.347C100.163 258.916 86.2029 249.962 77.6075 235.365C77.2964 235.637 76.9513 235.885 76.5676 236.098C75.2493 236.832 73.834 236.966 72.5482 236.733C70.232 236.314 68.2423 234.711 66.7148 233.124C65.0722 231.418 63.4327 229.166 61.8713 226.566C56.8346 218.178 51.9052 204.961 50.3916 190.855C49.8778 191.265 49.3632 191.624 48.846 191.929C47.438 192.758 45.8068 193.309 44.0492 193.184C42.2349 193.054 40.7256 192.236 39.5781 191.111C37.4798 189.056 36.4302 185.849 35.8694 182.722C35.2779 179.424 35.1053 175.468 35.3012 171.204C35.6935 162.669 37.5845 152.445 41.0321 142.926C42.7837 138.09 44.9739 133.335 47.6406 129.042C44.2686 129.777 40.4322 130.304 36.3988 130.278C29.7667 130.235 22.4642 128.695 15.8841 124.002C9.28279 119.295 3.76595 111.669 0.27958 100.103C0.27344 100.083 0.267388 100.062 0.261594 100.042C-0.493551 97.3736 0.497431 95.032 1.81531 93.3601C3.08486 91.7495 4.89708 90.4103 6.76789 89.2941C10.5498 87.0378 15.6618 85.0638 20.598 83.4521C23.8381 82.3942 27.1018 81.4612 30.0278 80.6839C15.2994 72.2191 5.46791 58.0772 3.45527 43.1099C2.22366 33.9509 3.93796 24.519 9.24173 16.0641C14.5401 7.6179 23.2773 0.368844 35.7386 -4.72034C37.0666 -5.26268 38.5874 -5.00364 39.6611 -4.05242C40.7348 -3.10115 41.1751 -1.62271 40.7967 -0.239058C35.0925 20.6168 37.2521 30.0797 41.326 34.8075C43.4048 37.2199 46.3175 38.8292 50.0441 39.9984C53.8168 41.182 58.0921 41.8205 62.7563 42.5074C65.0139 42.8399 67.3576 43.1844 69.6767 43.6123C72.8159 40.0467 76.889 36.4455 81.9788 32.8929C85.4088 19.527 92.9157 11.3592 102.806 8.9708C110.73 7.05731 119.4 9.05969 127.512 13.8968C128.096 11.6967 129.221 9.71916 130.832 8.06089C134.149 4.64834 139.08 3.03736 144.241 3.06621C153.143 3.11597 163.49 7.96116 171.039 18.6373C171.291 18.3639 171.556 18.1029 171.834 17.8553C173.967 15.9524 176.551 15.0893 179.163 14.9588C184.196 14.7073 189.566 17.1258 193.911 20.4031C198.327 23.7327 202.3 28.402 204.337 33.5396C205.701 36.9784 206.235 40.7847 205.295 44.4707C215.441 45.1138 222.647 43.9463 227.686 41.8019C233.415 39.3639 236.528 35.5936 238.124 31.2227C239.774 26.7049 239.881 21.3006 239.021 15.7027C238.167 10.1388 236.399 4.66136 234.586 0.179925C234.022 -1.21512 234.342 -2.81212 235.401 -3.88196ZM56.5394 129.38C53.1475 133.829 50.3205 139.406 48.1164 145.491C44.9315 154.285 43.1858 163.76 42.8278 171.55C42.6486 175.448 42.8223 178.811 43.2852 181.392C43.7274 183.857 44.3464 185.104 44.7282 185.59C44.8054 185.555 44.9034 185.506 45.0229 185.436C46.1523 184.771 48.0174 182.95 50.522 179.028C51.4292 177.608 53.1696 176.963 54.7833 177.449C56.397 177.936 57.4918 179.434 57.4636 181.119C57.1952 197.167 62.7737 213.433 68.3306 222.687C69.7083 224.981 71.0167 226.729 72.1427 227.898C72.429 228.196 72.6815 228.432 72.8989 228.62C73.0428 227.875 73.1606 226.776 73.1606 225.216C73.1606 223.392 74.4664 221.831 76.261 221.508C78.0558 221.185 79.8241 222.195 80.459 223.904C86.892 241.221 102.128 251.212 114.188 259.023C118.299 261.685 122.25 264.231 125.017 266.712C126.552 268.088 128.161 269.83 129.053 271.917C136.743 270.934 141.23 269.634 144.934 267.517C149.274 265.037 152.849 261.285 159.129 254.474L159.228 254.37C160.277 253.316 161.853 252.975 163.248 253.511C164.689 254.064 165.647 255.44 165.665 256.984C165.671 257.486 165.706 257.859 165.748 258.13C166.65 257.812 167.969 257.071 169.664 255.781C171.368 254.484 173.267 252.776 175.258 250.766C179.241 246.746 183.419 241.691 186.928 236.724C190.476 231.703 193.164 227.019 194.353 223.727C194.974 222.006 196.743 220.98 198.545 221.296C200.348 221.611 201.663 223.177 201.663 225.007C201.663 226.584 201.778 227.745 201.945 228.568C201.96 228.64 201.976 228.709 201.991 228.774C202.667 228.284 203.595 227.436 204.724 226.105C206.274 224.277 207.959 221.837 209.626 218.959C212.964 213.196 216.058 205.977 217.818 199.035C219.616 191.942 219.845 185.819 218.254 181.822C217.499 179.925 218.393 177.772 220.269 176.967C222.145 176.162 224.321 176.997 225.175 178.851C227.289 183.435 229.031 186.016 230.277 187.251C230.348 187.321 230.414 187.384 230.476 187.44C230.722 186.941 230.987 186.217 231.229 185.233C231.775 183.019 232.1 179.932 232.095 176.169C232.079 163.199 228.197 144.467 219.436 130.522C215.579 147.38 206.331 161.319 190.703 171.031C194.135 182.61 192.934 193.735 189.456 202.249C187.571 206.863 184.972 210.821 181.952 213.683C179.989 215.543 177.722 217.049 175.268 217.862C174.921 224.84 170.006 229.968 163.899 233.231C156.766 237.042 147.162 238.907 137.843 239.002C128.532 239.098 118.928 237.433 111.828 233.644C108.255 231.736 105.122 229.186 103.092 225.854C101.621 223.438 100.804 220.731 100.743 217.796C98.4701 216.998 96.3066 215.599 94.3922 213.909C91.2951 211.176 88.4538 207.352 86.3019 202.797C82.3324 194.394 80.5853 183.233 84.1477 171.215C71.1291 163.939 60.6303 149.658 56.5394 129.38ZM137.83 213.914C130.753 213.914 123.288 215.404 116.725 216.725C113.786 217.317 110.862 217.912 108.308 218.246C108.429 219.629 108.861 220.842 109.526 221.934C110.654 223.785 112.596 225.513 115.376 226.997C120.983 229.99 129.208 231.556 137.765 231.468C146.314 231.381 154.617 229.649 160.349 226.586C164.764 224.227 167.141 221.438 167.642 218.274C164.752 217.93 161.574 217.274 158.391 216.625C152.032 215.328 145.04 213.914 137.83 213.914ZM168.582 164.07C164.468 163.562 160.715 164.529 155.919 165.82C150.935 167.162 145.053 168.774 137.819 168.098C130.534 168.769 124.531 167.259 119.404 165.991C114.471 164.77 110.551 163.838 106.316 164.35C102.384 164.826 97.8072 166.617 91.9531 171.549C88.2048 182.362 89.681 192.311 93.1144 199.579C94.8861 203.329 97.1428 206.288 99.3774 208.26C101.689 210.3 103.617 210.984 104.763 210.984C106.969 210.984 110.451 210.303 115.239 209.339C121.674 208.044 129.877 206.38 137.83 206.38C145.913 206.38 153.627 207.964 159.896 209.243C164.794 210.241 168.526 210.984 171.316 210.984C172.704 210.984 174.626 210.245 176.77 208.214C178.876 206.218 180.923 203.214 182.481 199.4C185.504 192.001 186.512 181.978 182.953 171.521C176.978 166.377 172.414 164.543 168.582 164.07ZM172.619 67.8541C172.255 68.4427 171.849 69.086 171.402 69.7671C169.42 72.7889 166.567 76.7027 163.227 79.9134C160.019 82.9973 155.694 86.0876 150.787 86.1442C146.582 86.1927 142.965 84.0628 140.004 80.1027C137.684 81.7024 134.773 83.3921 131.694 84.9257C126.557 87.4838 120.412 89.8805 114.849 90.8029C112.071 91.2634 109.214 91.3955 106.611 90.8458C103.949 90.2836 101.377 88.9586 99.6509 86.416C97.959 83.9233 97.4419 80.7889 97.76 77.3108C97.8322 76.5212 97.9487 75.6983 98.1095 74.8415C92.7958 77.4399 87.6419 78.8078 82.921 79.0779C77.8197 79.3698 73.0879 78.3699 69.337 76.1262L64.6325 86.1655C63.3398 92.8564 62.5972 99.1512 62.3332 105.044C62.0819 110.655 62.2636 115.901 62.8143 120.778C65.2873 142.676 75.1618 157.078 86.8684 164.084C90.6949 155.924 97.0838 147.671 106.79 139.827C108.408 138.519 110.78 138.771 112.088 140.389C113.396 142.007 113.144 144.379 111.526 145.687C106.283 149.925 102.183 154.214 99.0263 158.449C101.198 157.631 103.317 157.124 105.412 156.871C111.231 156.167 116.473 157.503 121.214 158.677C126.479 159.98 131.437 161.181 137.447 160.566L137.64 160.551C137.833 160.541 138.027 160.546 138.219 160.566C144.083 161.175 148.849 159.921 153.961 158.545C158.562 157.306 163.708 155.877 169.504 156.593C171.568 156.847 173.659 157.363 175.809 158.194C172.612 153.947 168.468 149.753 163.185 145.763C161.525 144.509 161.196 142.146 162.45 140.486C163.704 138.826 166.066 138.497 167.726 139.751C177.569 147.185 184.068 155.466 187.972 163.838C203.311 153.81 211.359 139.099 213.462 120.771C214.032 115.808 214.165 110.568 213.878 105.072C213.562 99.0219 212.736 92.6727 211.427 86.0588C210.118 82.7344 209.201 80.547 207.822 77.9779C204.234 79.0407 199.839 78.9298 194.899 77.7625C188.784 76.3174 181.368 73.1556 172.619 67.8541ZM40.6491 85.8487C39.5767 86.086 38.0424 86.4361 36.2075 86.8841C32.5288 87.7823 27.681 89.0649 22.9365 90.614C18.1364 92.1813 13.671 93.9491 10.6283 95.7645C9.08697 96.684 8.17496 97.4629 7.73257 98.0241C7.66495 98.1099 7.61821 98.1782 7.58542 98.2293C10.6915 108.351 15.3257 114.35 20.2587 117.868C25.2619 121.436 30.9315 122.708 36.4474 122.744C41.9877 122.779 47.2326 121.563 51.1453 120.3C52.706 119.796 54.0332 119.291 55.0572 118.871C54.7528 115.265 54.6333 111.504 54.7134 107.591C48.3995 105.711 44.8679 105.855 41.8783 106.387C38.5645 106.977 34.0062 108.643 27.536 108.643C25.4554 108.643 23.7688 106.956 23.7688 104.876C23.7688 102.795 25.4554 101.109 27.536 101.109C33.1852 101.109 35.638 99.8446 40.5584 98.9692C44.5062 98.2668 48.8046 98.2068 55.1173 99.8783C55.4216 96.2396 55.8921 92.4828 56.5378 88.609C51.1796 88.2471 46.0932 87.2423 41.3407 85.6987C41.1387 85.7424 40.9072 85.7916 40.6491 85.8487ZM233.461 85.7081C229.072 87.0793 224.416 88.0299 219.539 88.486C220.205 92.3366 220.711 96.1177 221.051 99.8219C227.131 98.1921 231.839 98.2966 236.319 98.9508C241.97 99.7761 245.883 101.109 252.31 101.109C254.391 101.109 256.077 102.795 256.077 104.876C256.077 106.956 254.391 108.643 252.31 108.643C245.198 108.643 239.611 107.046 235.23 106.406C231.326 105.836 227.285 105.738 221.515 107.528C221.623 111.439 221.525 115.256 221.211 118.968C222.118 119.372 223.281 119.851 224.648 120.329C228.212 121.577 233.031 122.779 238.237 122.744C243.407 122.709 248.901 121.458 254.014 117.856C258.875 114.43 263.659 108.689 267.448 99.2157C267.278 99.0126 267.047 98.7694 266.736 98.4889C265.828 97.6694 264.507 96.7707 262.798 95.8286C259.385 93.9476 254.912 92.1594 250.353 90.5969C245.824 89.0446 241.347 87.761 237.991 86.8636C236.316 86.4158 234.929 86.0664 233.963 85.8295C233.78 85.7846 233.612 85.7447 233.461 85.7081ZM88.846 92.906C92.9696 92.4738 97.5406 93.9776 102.077 96.2865C103.931 97.2303 104.669 99.4985 103.725 101.353C102.781 103.207 100.513 103.945 98.6588 103.001C94.516 100.892 91.5525 100.198 89.6313 100.399C88.7596 100.491 88.1434 100.761 87.6553 101.156C87.148 101.567 86.5795 102.276 86.0832 103.536C85.3206 105.472 83.1334 106.423 81.1977 105.66C79.2619 104.898 78.3107 102.71 79.0733 100.774C79.9373 98.5811 81.1882 96.6977 82.9153 95.2997C84.6616 93.8862 86.6954 93.1314 88.846 92.906ZM173.584 96.2865C178.12 93.9776 182.691 92.4739 186.814 92.906C188.965 93.1314 190.999 93.8862 192.745 95.2997C194.472 96.6976 195.723 98.5811 196.587 100.774C197.349 102.71 196.399 104.898 194.463 105.66C192.527 106.423 190.34 105.472 189.577 103.536C189.081 102.276 188.512 101.567 188.005 101.156C187.517 100.761 186.901 100.491 186.029 100.399C184.108 100.198 181.144 100.892 177.001 103.001C175.147 103.944 172.879 103.207 171.935 101.353C170.992 99.4985 171.73 97.2303 173.584 96.2865ZM144.199 10.6005C140.502 10.5799 137.76 11.7429 136.235 13.3119C134.85 14.7373 134.058 16.902 134.969 20.1415C135.413 21.7196 134.785 23.4035 133.416 24.306C132.048 25.2083 130.253 25.1222 128.977 24.093C120.305 17.0962 111.489 14.6249 104.574 16.2946C97.9179 17.9021 91.7926 23.6696 88.9719 36.022C88.7591 36.954 88.1995 37.7703 87.4072 38.3053C81.357 42.3908 77.0212 46.3914 74.0758 50.088C67.3673 58.5071 68.2173 64.5882 70.8563 67.6955C72.9163 70.1208 76.8571 71.8781 82.4906 71.5558C88.0805 71.236 95.0733 68.8465 102.523 63.338C103.889 62.3284 105.761 62.3572 107.094 63.4083C108.428 64.4595 108.894 66.2732 108.231 67.8369C106.353 72.2703 105.483 75.5862 105.263 77.9967C105.043 80.4013 105.491 81.6033 105.885 82.1845C106.246 82.7158 106.881 83.2025 108.168 83.4742C109.514 83.7583 111.346 83.7465 113.617 83.3699C118.152 82.618 123.544 80.5673 128.335 78.1811C133.204 75.7563 136.917 73.2539 138.306 71.8653C139.155 71.0158 140.359 70.6227 141.546 70.8066C142.733 70.9904 143.761 71.7294 144.314 72.796C146.961 77.9032 149.3 78.6268 150.701 78.6107C152.602 78.5887 155.118 77.2578 158.006 74.4818C160.761 71.8325 163.258 68.4473 165.102 65.6353C166.013 64.2461 166.742 63.032 167.241 62.1702C167.49 61.74 167.68 61.3992 167.806 61.1704C167.869 61.056 167.916 60.9695 167.946 60.9141C167.96 60.8864 167.971 60.8663 167.977 60.8544C167.98 60.8486 167.983 60.8448 167.984 60.8429C167.984 60.8423 167.984 60.8418 167.984 60.8417C168.477 59.9087 169.338 59.2248 170.358 58.9565C171.379 58.688 172.466 58.8603 173.354 59.4315C183.146 65.7299 190.867 69.0679 196.632 70.4301C202.489 71.8142 205.77 71.0438 207.322 70.0132C208.842 69.0031 209.818 66.8536 208.468 63.0646C207.123 59.2912 203.579 54.7082 197.566 50.93C196.667 50.3653 196.048 49.4476 195.861 48.4026C195.675 47.3577 195.938 46.2825 196.586 45.4415C198.538 42.9062 198.723 39.8194 197.334 36.3167C195.911 32.7297 192.939 29.1059 189.375 26.4185C185.742 23.6788 182.099 22.3563 179.539 22.4841C178.354 22.5433 177.497 22.9 176.849 23.4774C176.185 24.0703 175.444 25.1636 174.995 27.2025C174.653 28.7572 173.371 29.9291 171.792 30.1301C170.212 30.331 168.678 29.5176 167.957 28.0981C161.505 15.3858 151.477 10.6412 144.199 10.6005ZM31.6297 5.57275C24.1815 9.70426 18.9791 14.7194 15.6242 20.0675C11.3144 26.9378 9.91051 34.579 10.9226 42.1056C12.9584 57.2457 24.8413 72.0607 42.7845 78.2379C47.6546 79.9145 52.9694 80.9515 58.649 81.1785L63.6372 70.5335C60.2369 64.9562 60.6435 57.7544 64.7674 50.4272C63.7479 50.2692 62.7117 50.1163 61.6588 49.9612C57.127 49.2938 52.2348 48.5822 47.789 47.1874C43.2972 45.7781 38.9401 43.5811 35.618 39.7258C29.7572 32.9242 28.1171 22.2455 31.6297 5.57275ZM244.53 5.88709C245.328 8.65274 246.011 11.5776 246.469 14.559C247.433 20.8381 247.449 27.6511 245.201 33.8069C242.899 40.1095 238.308 45.4695 230.636 48.7345C225.368 50.9765 218.752 52.1893 210.561 52.1812C212.869 54.8732 214.56 57.7157 215.565 60.5356C217.198 65.1173 217.09 70.1742 214.158 73.8604C215.534 76.3659 216.494 78.4822 217.556 81.0907C222.726 80.7134 227.604 79.7189 232.128 78.2232C250.977 71.9912 263.519 57.1701 265.737 42.1404C266.838 34.6784 265.424 27.0895 260.932 20.2282C257.496 14.98 252.168 10.0234 244.53 5.88709Z" fill="#020122"/>
<path d="M120.04 189.636C116.064 195.287 97.8558 187.962 103.297 177.288C108.948 169.126 122.97 182.102 120.04 189.636Z" fill="#020122"/>
<path d="M156.017 189.518C159.993 195.168 178.201 187.843 172.76 177.17C167.109 169.007 153.087 181.983 156.017 189.518Z" fill="#020122"/>
<path d="M95.1351 131.036C83.2057 132.501 85.2986 108.852 95.1351 107.596C102.879 105.875 107.064 129.571 95.1351 131.036Z" fill="#020122"/>
<path d="M179.403 131.125C191.332 132.59 189.239 108.941 179.403 107.685C171.659 105.964 167.473 129.66 179.403 131.125Z" fill="#020122"/>
</g>
<defs>
<clipPath id="clip0_2_117">
<rect width="1224" height="296" fill="white"/>
</clipPath>
</defs>
</svg>
