<svg width="755" height="755" viewBox="0 0 755 755" fill="none" xmlns="http://www.w3.org/2000/svg">
<path d="M163.372 71.6681C166.544 70.3725 170.178 70.9913 172.743 73.2638C175.308 75.5364 176.36 79.0686 175.456 82.3741C161.828 132.2 166.988 154.808 176.72 166.103C181.687 171.866 188.645 175.711 197.549 178.504C206.562 181.332 216.776 182.857 227.919 184.498C233.312 185.293 238.912 186.115 244.452 187.138C251.952 178.619 261.683 170.016 273.842 161.528C282.037 129.597 299.971 110.083 323.599 104.377C342.53 99.8056 363.244 104.589 382.624 116.146C384.018 110.89 386.706 106.165 390.556 102.203C398.48 94.0505 410.262 90.2017 422.591 90.2706C443.857 90.3895 468.579 101.965 486.613 127.471C487.216 126.818 487.848 126.194 488.511 125.603C493.607 121.057 499.781 118.994 506.021 118.683C518.047 118.082 530.874 123.86 541.257 131.69C551.805 139.644 561.297 150.799 566.165 163.073C569.423 171.289 570.697 180.383 568.452 189.189C592.692 190.725 609.908 187.936 621.946 182.813C635.632 176.988 643.07 167.981 646.883 157.538C650.825 146.745 651.082 133.834 649.027 120.46C646.985 107.168 642.762 94.0815 638.431 83.3751C637.083 80.0423 637.848 76.2269 640.377 73.671C642.905 71.1153 646.711 70.3095 650.058 71.6212C681.317 83.8727 703.199 101.199 716.432 121.412C729.701 141.679 733.9 164.291 730.66 186.248C725.325 222.407 700.018 256.278 662.824 276.325C668.769 278.061 675.315 280.09 681.935 282.359C693.203 286.22 705.022 290.888 714.518 296.121C719.26 298.734 723.718 301.647 727.299 304.878C730.772 308.013 734.177 312.124 735.494 317.27C735.949 319.049 735.849 320.926 735.207 322.647C724.965 350.09 710.999 368.102 695.214 379.225C679.421 390.352 662.519 394.084 647.276 394.188C637.706 394.253 628.739 392.89 620.976 391.02C641.763 427.257 650.441 472.446 650.479 503.802C650.491 513.655 649.658 522.599 647.888 529.784C647.004 533.376 645.821 536.795 644.219 539.751C642.651 542.646 640.37 545.667 637.015 547.656C633.36 549.824 629.169 550.312 625.086 549.14C622.889 548.509 620.887 547.447 619.067 546.148C618.344 551.734 617.216 557.363 615.819 562.875C611.163 581.243 603.089 600.028 594.376 615.073C590.014 622.604 585.39 629.375 580.815 634.769C576.422 639.947 571.395 644.677 566.065 647.035C563.291 648.263 559.781 649.136 555.989 648.4C553.078 647.834 550.635 646.442 548.692 644.571C545.838 649.276 542.651 654.102 539.274 658.881C530.392 671.453 519.78 684.313 509.481 694.709C504.332 699.907 499.158 704.593 494.228 708.345C489.409 712.013 484.34 715.165 479.427 716.793C474.644 718.379 467.803 719.15 462.224 714.369C461.977 714.157 461.739 713.936 461.509 713.713C451.684 724.054 443.237 731.941 433.177 737.69C419.682 745.401 404.009 748.92 379.708 751.451C376.869 751.747 374.057 750.679 372.132 748.572C370.206 746.466 369.394 743.57 369.943 740.769C369.973 740.617 370.338 738.643 364.644 733.537C359.326 728.768 351.293 723.536 341.008 716.875C317.285 701.511 283.934 680.12 263.399 645.246C262.656 645.896 261.831 646.489 260.915 646.999C257.765 648.752 254.384 649.071 251.312 648.516C245.778 647.515 241.025 643.684 237.376 639.893C233.452 635.816 229.535 630.437 225.804 624.225C213.771 604.186 201.995 572.611 198.379 538.909C197.151 539.889 195.922 540.747 194.686 541.475C191.322 543.456 187.425 544.772 183.226 544.473C178.892 544.164 175.286 542.208 172.545 539.523C167.532 534.612 165.024 526.95 163.684 519.48C162.271 511.6 161.859 502.148 162.327 491.962C163.264 471.572 167.782 447.146 176.018 424.404C180.203 412.85 185.436 401.491 191.806 391.235C183.75 392.991 174.585 394.25 164.949 394.188C149.104 394.085 131.658 390.405 115.938 379.194C100.167 367.948 86.987 349.729 78.6579 322.098C78.6432 322.049 78.6287 322 78.6149 321.951C76.8109 315.577 79.1784 309.983 82.3268 305.988C85.3599 302.141 89.6894 298.941 94.1589 296.275C103.194 290.884 115.407 286.168 127.2 282.318C134.941 279.79 142.738 277.561 149.728 275.704C114.541 255.481 91.0531 221.695 86.2448 185.938C83.3025 164.056 87.398 141.523 100.069 121.323C112.727 101.145 133.601 83.8264 163.372 71.6681Z" fill="#FBFBFB"/>
<path d="M148.372 54.6681C151.544 53.3725 155.178 53.9913 157.743 56.2638C160.308 58.5364 161.36 62.0686 160.456 65.3741C146.828 115.2 151.988 137.808 161.72 149.103C166.687 154.866 173.645 158.711 182.549 161.504C191.562 164.332 201.776 165.857 212.919 167.498C218.312 168.293 223.912 169.115 229.452 170.138C236.952 161.619 246.683 153.016 258.842 144.528C267.037 112.597 284.971 93.0831 308.599 87.3771C327.53 82.8056 348.244 87.5895 367.624 99.1456C369.018 93.8895 371.706 89.1649 375.556 85.2032C383.48 77.0505 395.262 73.2017 407.591 73.2706C428.857 73.3895 453.579 84.9651 471.613 110.471C472.216 109.818 472.848 109.194 473.511 108.603C478.607 104.057 484.781 101.994 491.021 101.683C503.047 101.082 515.874 106.86 526.257 114.69C536.805 122.644 546.297 133.799 551.165 146.073C554.423 154.289 555.697 163.383 553.452 172.189C577.692 173.725 594.908 170.936 606.946 165.813C620.632 159.988 628.07 150.981 631.883 140.538C635.825 129.745 636.082 116.834 634.027 103.46C631.985 90.1676 627.762 77.0815 623.431 66.3751C622.083 63.0423 622.848 59.2269 625.377 56.671C627.905 54.1153 631.711 53.3095 635.058 54.6212C666.317 66.8727 688.199 84.1995 701.432 104.412C714.701 124.679 718.9 147.291 715.66 169.248C710.325 205.407 685.018 239.278 647.824 259.325C653.769 261.061 660.315 263.09 666.935 265.359C678.203 269.22 690.022 273.888 699.518 279.121C704.26 281.734 708.718 284.647 712.299 287.878C715.772 291.013 719.177 295.124 720.494 300.27C720.949 302.049 720.849 303.926 720.207 305.647C709.965 333.09 695.999 351.102 680.214 362.225C664.421 373.352 647.519 377.084 632.276 377.188C622.706 377.253 613.739 375.89 605.976 374.02C626.763 410.257 635.441 455.446 635.479 486.802C635.491 496.655 634.658 505.599 632.888 512.784C632.004 516.376 630.821 519.795 629.219 522.751C627.651 525.646 625.37 528.667 622.015 530.656C618.36 532.824 614.169 533.312 610.086 532.14C607.889 531.509 605.887 530.447 604.067 529.148C603.344 534.734 602.216 540.363 600.819 545.875C596.163 564.243 588.089 583.028 579.376 598.073C575.014 605.604 570.39 612.375 565.815 617.769C561.422 622.947 556.395 627.677 551.065 630.035C548.291 631.263 544.781 632.136 540.989 631.4C538.078 630.834 535.635 629.442 533.692 627.571C530.838 632.276 527.651 637.102 524.274 641.881C515.392 654.453 504.78 667.313 494.481 677.709C489.332 682.907 484.158 687.593 479.228 691.345C474.409 695.013 469.34 698.165 464.427 699.793C459.644 701.379 452.803 702.15 447.224 697.369C446.977 697.157 446.739 696.936 446.509 696.713C436.684 707.054 428.237 714.941 418.177 720.69C404.682 728.401 389.009 731.92 364.708 734.451C361.869 734.747 359.057 733.679 357.132 731.572C355.206 729.466 354.394 726.57 354.943 723.769C354.973 723.617 355.338 721.643 349.644 716.537C344.326 711.768 336.293 706.536 326.008 699.875C302.285 684.511 268.934 663.12 248.399 628.246C247.656 628.896 246.831 629.489 245.915 629.999C242.765 631.752 239.384 632.071 236.312 631.516C230.778 630.515 226.025 626.684 222.376 622.893C218.452 618.816 214.535 613.437 210.804 607.225C198.771 587.186 186.995 555.611 183.379 521.909C182.151 522.889 180.922 523.747 179.686 524.475C176.322 526.456 172.425 527.772 168.226 527.473C163.892 527.164 160.286 525.208 157.545 522.523C152.532 517.612 150.024 509.95 148.684 502.48C147.271 494.6 146.859 485.148 147.327 474.962C148.264 454.572 152.782 430.146 161.018 407.404C165.203 395.85 170.436 384.491 176.806 374.235C168.75 375.991 159.585 377.25 149.949 377.188C134.104 377.085 116.658 373.405 100.938 362.194C85.1671 350.948 71.987 332.729 63.6579 305.098C63.6432 305.049 63.6287 305 63.6149 304.951C61.8109 298.577 64.1784 292.983 67.3268 288.988C70.3599 285.141 74.6894 281.941 79.1589 279.275C88.194 273.884 100.407 269.168 112.2 265.318C119.941 262.79 127.738 260.561 134.728 258.704C99.5412 238.481 76.0531 204.695 71.2448 168.938C68.3025 147.056 72.398 124.523 85.069 104.323C97.7271 84.145 118.601 66.8264 148.372 54.6681Z" fill="#020122"/>
<path d="M260.009 453.5C238.339 511.755 275.061 562 298.277 562C304.671 562 314.075 560.107 325.081 557.892C340.607 554.767 359.323 551 377.277 551C395.545 551 413.111 554.582 428.196 557.657C439.547 559.972 449.494 562 457.277 562C482.886 562 513.178 509.441 492.784 453.5C460.675 424.962 440.603 430.366 418.154 436.41C405.99 439.684 393.129 443.147 377.277 441.5C361.184 443.147 347.942 439.87 335.418 436.77C312.305 431.05 291.639 425.935 260.009 453.5Z" fill="#FC9E4F"/>
<path d="M298.277 562C285.777 629 468.277 625.5 457.277 562C449.494 562 439.547 559.972 428.196 557.657C413.111 554.582 395.545 551 377.277 551C359.323 551 340.607 554.767 325.081 557.892C314.075 560.107 304.671 562 298.277 562Z" fill="#FC9E4F"/>
<path d="M210.412 216.5C200.188 204.462 200.484 184.888 217.925 163C211.011 161.523 203.803 160.461 196.61 159.402C152.67 152.931 109.279 146.541 136.777 46C23.3553 92.3212 55.7379 212.857 147.277 244.37C161.464 249.254 177.071 252 193.777 252L210.412 216.5Z" fill="#FC9E4F"/>
<path d="M616.777 46C634.777 90.5 652.277 177.5 524.777 163C556.099 182.68 564.915 212.655 548.277 223.708C554.587 234.261 557.289 240.577 561.777 252C577.323 251.506 591.948 248.813 605.386 244.37C700.865 212.802 736.435 92.8992 616.777 46Z" fill="#FC9E4F"/>
<path fill-rule="evenodd" clip-rule="evenodd" d="M361.777 99.5C317.777 64 266.277 69.5 251.777 133C236.744 143.151 225.652 153.303 217.925 163C200.484 184.888 200.188 204.462 210.412 216.5C224.885 233.54 260.437 235.479 298.277 207.5C260.777 296 367.277 244.5 384.777 227C413.277 282 457.277 198.5 457.277 198.5C505.08 229.249 534.903 232.592 548.277 223.708C564.915 212.655 556.099 182.68 524.777 163C553.277 126 468.277 62 457.277 112C423.777 46 349.985 57.5538 361.777 99.5ZM57.2773 285.5C51.1923 264 147.277 244.37 147.277 244.37C161.464 249.254 177.071 252 193.777 252C190.48 268.792 188.585 284.632 187.92 299.5C187.299 313.349 187.745 326.354 189.117 338.5C189.117 338.5 88.7772 390 57.2773 285.5ZM260.009 453.5C225.103 437.313 195.874 398.34 189.117 338.5C128.277 390 126.777 559 176.277 481.5C174.932 561.911 231.777 643.5 231.777 587C248.329 631.558 287.409 656.867 315.903 675.321C336.01 688.342 350.846 697.95 348.777 708.5C396.777 703.5 405.277 695 434.777 663C435.277 706 507.777 622.5 520.777 586.5C520.777 653 597.277 529 577.777 480C619.277 570 629.777 410 566.908 338.5C566.908 338.5 657.777 390 696.777 285.5C691.277 264 605.386 244.37 605.386 244.37C591.948 248.813 577.323 251.506 561.777 252C565.067 268.451 567.155 284.316 567.948 299.5C568.657 313.068 568.332 326.091 566.908 338.5C561.208 388.174 537.897 427.999 492.784 453.5C513.178 509.441 482.886 562 457.277 562C468.277 625.5 285.777 629 298.277 562C275.061 562 238.339 511.755 260.009 453.5Z" fill="#854D27"/>
<path d="M384.777 227C367.277 244.5 260.777 296 298.277 207.5C260.437 235.479 224.885 233.54 210.412 216.5L193.777 252C190.48 268.792 188.585 284.632 187.92 299.5C187.299 313.349 187.745 326.354 189.117 338.5C195.874 398.34 225.103 437.313 260.009 453.5C291.639 425.935 312.305 431.05 335.418 436.77C347.942 439.87 361.184 443.147 377.277 441.5C393.129 443.147 405.99 439.684 418.154 436.41C440.603 430.366 460.675 424.962 492.784 453.5C537.897 427.999 561.208 388.174 566.908 338.5C568.332 326.091 568.657 313.068 567.948 299.5C567.155 284.316 565.067 268.451 561.777 252C557.289 240.577 554.587 234.261 548.277 223.708C534.903 232.592 505.08 229.249 457.277 198.5C457.277 198.5 413.277 282 384.777 227Z" fill="#854D27"/>
<path d="M610.379 39.6709C612.907 37.1151 616.713 36.3093 620.061 37.6211C651.319 49.8726 673.201 67.1993 686.435 87.4121C699.703 107.679 703.902 130.291 700.662 152.248C695.327 188.407 670.02 222.278 632.826 242.325C638.771 244.061 645.317 246.09 651.937 248.358C663.205 252.22 675.024 256.888 684.52 262.121C689.262 264.734 693.72 267.647 697.301 270.878C700.774 274.013 704.18 278.123 705.496 283.27C705.951 285.049 705.851 286.925 705.209 288.646C694.967 316.09 681.001 334.102 665.216 345.225C649.423 356.352 632.521 360.084 617.278 360.188C607.708 360.252 598.741 358.89 590.978 357.02C611.765 393.257 620.443 438.446 620.481 469.802C620.493 479.655 619.66 488.599 617.891 495.784C617.006 499.376 615.823 502.795 614.222 505.751C612.653 508.646 610.372 511.667 607.018 513.656C603.362 515.823 599.172 516.312 595.088 515.14C592.892 514.509 590.889 513.447 589.069 512.147C588.346 517.734 587.218 523.363 585.821 528.875C581.166 547.243 573.092 566.028 564.378 581.073C560.016 588.604 555.393 595.375 550.817 600.769C546.425 605.947 541.397 610.677 536.067 613.035C533.294 614.263 529.783 615.136 525.991 614.399C523.08 613.834 520.637 612.442 518.694 610.571C515.84 615.276 512.653 620.101 509.276 624.881C500.394 637.453 489.782 650.313 479.483 660.709C474.334 665.907 469.16 670.593 464.23 674.345C459.411 678.013 454.342 681.165 449.43 682.793C444.647 684.379 437.806 685.15 432.227 680.369C431.979 680.157 431.742 679.936 431.512 679.713C421.687 690.054 413.24 697.941 403.18 703.689C389.684 711.401 374.011 714.92 349.71 717.451C346.871 717.747 344.059 716.679 342.134 714.572C340.208 712.465 339.396 709.57 339.945 706.769C339.975 706.619 340.342 704.645 334.646 699.537C329.329 694.768 321.296 689.536 311.011 682.875C287.287 667.511 253.936 646.12 233.401 611.246C232.658 611.896 231.834 612.489 230.917 612.999C227.767 614.752 224.386 615.071 221.314 614.516C215.781 613.515 211.027 609.684 207.378 605.893C203.454 601.816 199.537 596.437 195.807 590.225C183.774 570.186 171.997 538.611 168.381 504.909C167.153 505.889 165.924 506.747 164.688 507.475C161.325 509.455 157.428 510.771 153.229 510.473C148.894 510.164 145.288 508.208 142.547 505.522C137.534 500.611 135.026 492.95 133.687 485.479C132.273 477.599 131.861 468.148 132.329 457.962C133.266 437.572 137.784 413.146 146.021 390.404C150.205 378.85 155.438 367.49 161.809 357.235C153.753 358.991 144.587 360.25 134.951 360.188C119.107 360.085 101.661 356.405 85.9404 345.194C70.1694 333.947 56.9893 315.729 48.6602 288.098C48.6455 288.049 48.631 288 48.6172 287.951C46.8131 281.577 49.1806 275.983 52.3291 271.988C55.3622 268.14 59.6916 264.941 64.1611 262.274C73.1962 256.884 85.4093 252.168 97.2021 248.317C104.943 245.79 112.74 243.561 119.73 241.704C84.5434 221.481 61.0554 187.695 56.2471 151.938C53.3047 130.056 57.4003 107.523 70.0713 87.3233C82.7293 67.1448 103.603 49.8264 133.374 37.668C136.547 36.3723 140.18 36.9911 142.745 39.2637C145.31 41.5363 146.362 45.0684 145.458 48.374C131.83 98.1999 136.99 120.807 146.723 132.103C151.689 137.866 158.648 141.711 167.551 144.504C176.564 147.332 186.778 148.857 197.921 150.498C203.315 151.292 208.914 152.115 214.454 153.138C221.954 144.619 231.685 136.016 243.845 127.528C252.039 95.5964 269.974 76.083 293.602 70.377C312.532 65.8055 333.246 70.5893 352.626 82.1455C354.021 76.8894 356.708 72.1648 360.559 68.2031C368.482 60.0503 380.264 56.2016 392.593 56.2705C413.859 56.3894 438.581 67.9649 456.615 93.4707C457.218 92.8177 457.85 92.1942 458.514 91.6026C463.61 87.0564 469.783 84.9944 476.023 84.6826C488.049 84.0819 500.876 89.8599 511.259 97.6895C521.807 105.644 531.3 116.799 536.167 129.073C539.425 137.289 540.7 146.382 538.454 155.188C562.694 156.725 579.91 153.936 591.948 148.813C605.634 142.988 613.072 133.981 616.886 123.538C620.827 112.745 621.084 99.8336 619.029 86.46C616.987 73.1675 612.764 60.0814 608.434 49.375C607.085 46.0422 607.851 42.2268 610.379 39.6709ZM183.068 358.042C174.965 368.67 168.211 381.995 162.945 396.533C155.336 417.542 151.166 440.178 150.311 458.788C149.882 468.102 150.297 476.135 151.403 482.302C152.46 488.192 153.939 491.17 154.851 492.33C155.035 492.248 155.269 492.131 155.555 491.963C158.253 490.374 162.709 486.023 168.692 476.655C170.86 473.262 175.018 471.722 178.873 472.883C182.728 474.044 185.344 477.625 185.276 481.65C184.635 519.99 197.963 558.85 211.238 580.958C214.53 586.439 217.656 590.614 220.346 593.408C221.03 594.119 221.633 594.684 222.152 595.133C222.496 593.354 222.777 590.727 222.777 587C222.777 582.644 225.897 578.912 230.185 578.142C234.472 577.371 238.697 579.782 240.214 583.866C255.583 625.238 291.983 649.107 320.795 667.767C330.616 674.127 340.055 680.209 346.665 686.137C350.332 689.425 354.178 693.586 356.308 698.572C374.68 696.222 385.399 693.118 394.249 688.061C404.617 682.136 413.159 673.172 428.16 656.899L428.398 656.65C430.903 654.133 434.668 653.317 438.003 654.598C441.446 655.919 443.733 659.208 443.776 662.896C443.79 664.096 443.875 664.987 443.974 665.633C446.128 664.874 449.28 663.104 453.329 660.022C457.401 656.923 461.938 652.843 466.695 648.041C476.209 638.437 486.192 626.36 494.575 614.494C503.051 602.498 509.473 591.308 512.312 583.443C513.797 579.331 518.023 576.881 522.329 577.635C526.635 578.389 529.777 582.128 529.777 586.5C529.777 590.268 530.052 593.043 530.451 595.008C530.486 595.181 530.525 595.345 530.561 595.501C532.177 594.331 534.393 592.305 537.091 589.124C540.795 584.758 544.82 578.927 548.802 572.052C556.775 558.285 564.169 541.038 568.373 524.453C572.668 507.507 573.216 492.879 569.415 483.328C567.612 478.797 569.746 473.653 574.228 471.729C578.709 469.806 583.908 471.802 585.95 476.231C591 487.182 595.162 493.35 598.139 496.3C598.307 496.467 598.466 496.617 598.613 496.751C599.201 495.558 599.834 493.83 600.413 491.479C601.716 486.19 602.492 478.813 602.481 469.823C602.443 438.839 593.17 394.087 572.239 360.77C563.023 401.044 540.931 434.345 503.594 457.55C511.793 485.211 508.923 511.791 500.613 532.132C496.111 543.153 489.901 552.611 482.688 559.446C477.998 563.89 472.58 567.489 466.719 569.431C465.889 586.103 454.147 598.353 439.558 606.148C422.517 615.253 399.571 619.708 377.307 619.937C355.064 620.164 332.119 616.188 315.157 607.135C306.619 602.578 299.135 596.485 294.285 588.523C290.77 582.754 288.819 576.285 288.674 569.274C283.243 567.367 278.075 564.024 273.501 559.987C266.102 553.457 259.314 544.322 254.173 533.439C244.69 513.364 240.516 486.7 249.026 457.989C217.924 440.606 192.842 406.489 183.068 358.042ZM377.277 560C360.37 560 342.536 563.559 326.856 566.715C319.834 568.128 312.848 569.551 306.746 570.35C307.035 573.652 308.069 576.551 309.657 579.158C312.352 583.581 316.99 587.71 323.632 591.255C337.029 598.405 356.677 602.147 377.122 601.938C397.545 601.728 417.381 597.59 431.075 590.273C441.624 584.637 447.302 577.974 448.5 570.415C441.596 569.594 434.002 568.026 426.397 566.476C411.205 563.378 394.501 560 377.277 560ZM450.744 440.919C440.916 439.706 431.951 442.016 420.493 445.101C408.585 448.306 394.532 452.156 377.251 450.541C359.847 452.144 345.505 448.538 333.256 445.507C321.471 442.59 312.105 440.365 301.988 441.588C292.593 442.724 281.66 447.004 267.674 458.786C258.719 484.62 262.246 508.387 270.448 525.751C274.681 534.711 280.072 541.78 285.411 546.491C290.935 551.366 295.539 553 298.277 553C303.548 553 311.867 551.372 323.305 549.069C338.679 545.975 358.276 542 377.277 542C396.589 542 415.016 545.785 429.994 548.839C441.696 551.225 450.612 553 457.277 553C460.593 553 465.185 551.234 470.307 546.381C475.338 541.614 480.228 534.435 483.95 525.324C491.172 507.647 493.58 483.702 485.079 458.721C470.804 446.43 459.901 442.049 450.744 440.919ZM460.389 211.053C459.521 212.459 458.549 213.996 457.482 215.623C452.748 222.842 445.931 232.193 437.952 239.863C430.289 247.231 419.955 254.614 408.232 254.749C398.187 254.865 389.545 249.776 382.471 240.315C376.928 244.137 369.974 248.174 362.617 251.838C350.346 257.949 335.664 263.675 322.374 265.879C315.738 266.979 308.912 267.295 302.693 265.981C296.333 264.638 290.187 261.473 286.064 255.398C282.022 249.443 280.787 241.955 281.547 233.646C281.719 231.759 281.998 229.793 282.382 227.746C269.687 233.954 257.374 237.222 246.096 237.867C233.908 238.564 222.604 236.176 213.643 230.815L202.403 254.8C199.315 270.785 197.541 285.823 196.91 299.902C196.31 313.308 196.744 325.84 198.06 337.49C203.968 389.806 227.558 424.214 255.526 440.953C264.668 421.458 279.932 401.741 303.12 383C306.986 379.876 312.653 380.477 315.777 384.343C318.902 388.209 318.3 393.876 314.435 397C301.908 407.124 292.113 417.371 284.572 427.489C289.762 425.535 294.823 424.324 299.827 423.719C313.729 422.038 326.253 425.231 337.581 428.034C350.158 431.147 362.004 434.016 376.361 432.547L376.822 432.512C377.284 432.488 377.747 432.5 378.207 432.548C392.215 434.003 403.602 431.006 415.814 427.719C426.806 424.76 439.101 421.346 452.948 423.055C457.88 423.663 462.875 424.895 468.01 426.88C460.372 416.735 450.473 406.714 437.853 397.182C433.886 394.186 433.1 388.541 436.096 384.575C439.092 380.609 444.735 379.823 448.701 382.818C472.216 400.58 487.743 420.362 497.069 440.365C533.715 416.407 552.942 381.261 557.967 337.474C559.327 325.617 559.646 313.098 558.96 299.97C558.205 285.515 556.231 270.346 553.104 254.545C549.976 246.603 547.786 241.377 544.491 235.239C535.921 237.778 525.42 237.513 513.618 234.725C499.008 231.272 481.292 223.718 460.389 211.053ZM145.105 254.043C142.543 254.61 138.878 255.446 134.494 256.517C125.705 258.663 114.124 261.727 102.789 265.428C91.3213 269.172 80.6532 273.395 73.3838 277.732C69.7016 279.929 67.5227 281.79 66.4658 283.131C66.3043 283.336 66.1926 283.499 66.1143 283.621C73.5348 307.804 84.6063 322.135 96.3916 330.539C108.344 339.063 121.89 342.102 135.067 342.188C148.303 342.273 160.834 339.367 170.182 336.35C173.91 335.146 177.081 333.939 179.527 332.936C178.8 324.321 178.515 315.336 178.706 305.987C163.622 301.495 155.184 301.84 148.042 303.11C140.125 304.519 129.235 308.5 113.777 308.5C108.807 308.5 104.777 304.471 104.777 299.5C104.777 294.529 108.807 290.5 113.777 290.5C127.274 290.5 133.134 287.48 144.889 285.389C154.32 283.711 164.589 283.567 179.671 287.561C180.398 278.868 181.522 269.892 183.064 260.638C170.263 259.773 158.112 257.372 146.758 253.685C146.275 253.789 145.722 253.907 145.105 254.043ZM605.744 253.707C595.259 256.983 584.135 259.254 572.485 260.344C574.075 269.543 575.285 278.576 576.096 287.426C590.622 283.532 601.869 283.782 612.572 285.345C626.074 287.316 635.422 290.5 650.777 290.5C655.748 290.5 659.777 294.529 659.777 299.5C659.777 304.47 655.748 308.5 650.777 308.5C633.786 308.5 620.438 304.684 609.972 303.155C600.645 301.793 590.99 301.559 577.205 305.836C577.464 315.181 577.23 324.3 576.478 333.168C578.647 334.133 581.425 335.276 584.689 336.419C593.204 339.399 604.717 342.272 617.156 342.188C629.506 342.104 642.633 339.116 654.848 330.51C666.462 322.326 677.891 308.609 686.943 285.978C686.535 285.492 685.984 284.911 685.241 284.241C683.072 282.283 679.917 280.136 675.833 277.886C667.678 273.392 656.994 269.12 646.102 265.387C635.281 261.678 624.584 258.612 616.567 256.468C612.567 255.398 609.251 254.563 606.943 253.997C606.507 253.89 606.106 253.795 605.744 253.707ZM260.251 270.903C270.102 269.871 281.023 273.464 291.859 278.98C296.289 281.234 298.053 286.653 295.798 291.083C293.543 295.513 288.124 297.275 283.694 295.021C273.797 289.983 266.717 288.325 262.127 288.806C260.044 289.024 258.572 289.669 257.406 290.613C256.194 291.594 254.836 293.289 253.65 296.299C251.828 300.923 246.603 303.196 241.979 301.374C237.354 299.552 235.081 294.326 236.903 289.701C238.967 284.461 241.956 279.962 246.082 276.622C250.254 273.245 255.113 271.442 260.251 270.903ZM462.694 278.98C473.531 273.464 484.451 269.871 494.303 270.903C499.441 271.442 504.3 273.245 508.473 276.622C512.599 279.962 515.586 284.462 517.65 289.701C519.472 294.326 517.201 299.552 512.576 301.374C507.952 303.196 502.725 300.923 500.903 296.299C499.717 293.289 498.36 291.594 497.147 290.613C495.981 289.669 494.509 289.024 492.427 288.806C487.837 288.325 480.757 289.983 470.859 295.021C466.43 297.275 461.012 295.512 458.757 291.083C456.502 286.653 458.265 281.234 462.694 278.98ZM392.492 74.2705C383.66 74.2212 377.11 76.9997 373.467 80.7481C370.157 84.1535 368.266 89.3251 370.441 97.0645C371.501 100.835 370.001 104.858 366.731 107.014C363.462 109.169 359.174 108.964 356.126 106.505C335.408 89.7891 314.346 83.885 297.827 87.874C281.924 91.7145 267.29 105.493 260.552 135.004C260.043 137.231 258.706 139.181 256.813 140.459C242.359 150.219 232.001 159.777 224.964 168.608C208.937 188.722 210.968 203.25 217.272 210.674C222.194 216.468 231.609 220.666 245.067 219.896C258.422 219.132 275.128 213.424 292.927 200.264C296.189 197.852 300.661 197.92 303.848 200.432C307.034 202.943 308.146 207.276 306.563 211.012C302.075 221.604 299.998 229.525 299.472 235.284C298.946 241.029 300.016 243.9 300.958 245.289C301.819 246.558 303.339 247.721 306.412 248.37C309.627 249.049 314.004 249.021 319.43 248.121C330.264 246.325 343.146 241.426 354.593 235.725C366.224 229.932 375.096 223.953 378.413 220.636C380.442 218.606 383.318 217.667 386.154 218.106C388.991 218.546 391.447 220.311 392.768 222.859C399.09 235.061 404.68 236.79 408.025 236.751C412.569 236.698 418.579 233.519 425.478 226.887C432.061 220.557 438.025 212.47 442.431 205.752C444.607 202.433 446.35 199.533 447.541 197.474C448.136 196.446 448.591 195.632 448.892 195.085C449.042 194.812 449.153 194.605 449.225 194.473C449.26 194.407 449.286 194.358 449.301 194.33C449.308 194.316 449.313 194.307 449.315 194.303C449.316 194.301 449.317 194.3 449.317 194.3C450.494 192.071 452.551 190.437 454.988 189.796C457.428 189.155 460.025 189.566 462.146 190.931C485.539 205.978 503.986 213.953 517.758 217.207C531.751 220.514 539.59 218.673 543.297 216.211C546.929 213.798 549.26 208.663 546.034 199.61C542.822 190.595 534.355 179.646 519.989 170.62C517.842 169.271 516.363 167.079 515.917 164.582C515.471 162.086 516.1 159.517 517.647 157.508C522.313 151.451 522.753 144.076 519.435 135.708C516.036 127.138 508.935 118.481 500.421 112.061C491.741 105.515 483.037 102.356 476.922 102.661C474.092 102.803 472.043 103.655 470.496 105.034C468.908 106.451 467.139 109.063 466.067 113.934C465.25 117.648 462.186 120.448 458.413 120.928C454.64 121.408 450.973 119.465 449.252 116.073C433.837 85.7027 409.88 74.3677 392.492 74.2705ZM123.558 62.2588C105.763 72.1293 93.3344 84.1108 85.3193 96.8877C75.023 113.301 71.6691 131.557 74.0869 149.538C78.9507 185.709 107.34 221.103 150.207 235.86C161.842 239.866 174.539 242.343 188.108 242.886L200.025 217.454C191.902 204.13 192.873 186.924 202.726 169.419C200.29 169.041 197.814 168.676 195.299 168.306C184.472 166.711 172.784 165.011 162.163 161.679C151.432 158.312 141.023 153.063 133.086 143.853C119.084 127.603 115.166 102.091 123.558 62.2588ZM632.19 63.0098C634.097 69.6171 635.727 76.6049 636.821 83.7276C639.126 98.7287 639.164 115.005 633.793 129.712C628.294 144.769 617.326 157.575 598.997 165.375C586.411 170.731 570.605 173.629 551.035 173.609C556.548 180.041 560.589 186.832 562.99 193.568C566.891 204.514 566.633 216.596 559.629 225.402C562.917 231.388 565.209 236.444 567.748 242.676C580.098 241.775 591.752 239.399 602.561 235.825C647.592 220.937 677.556 185.528 682.854 149.621C685.485 131.794 682.107 113.664 671.375 97.2715C663.166 84.7333 650.437 72.8917 632.19 63.0098Z" fill="#020122"/>
<path d="M334.777 502C325.277 515.5 281.777 498 294.777 472.5C308.277 453 341.777 484 334.777 502Z" fill="#020122"/>
<path d="M420.728 501.716C430.228 515.216 473.728 497.716 460.728 472.216C447.228 452.716 413.728 483.716 420.728 501.716Z" fill="#020122"/>
<path d="M275.277 362C246.777 365.5 251.777 309 275.277 306C293.777 301.889 303.777 358.5 275.277 362Z" fill="#020122"/>
<path d="M476.597 362.213C505.097 365.713 500.097 309.213 476.597 306.213C458.097 302.102 448.097 358.713 476.597 362.213Z" fill="#020122"/>
</svg>
